<?xml version="1.0" standalone="no"?>
<!DOCTYPE svg PUBLIC "-//W3C//DTD SVG 20010904//EN"
 "http://www.w3.org/TR/2001/REC-SVG-20010904/DTD/svg10.dtd">
<svg version="1.0" xmlns="http://www.w3.org/2000/svg"
 width="3840.000000pt" height="2160.000000pt" viewBox="0 0 3840.000000 2160.000000"
 preserveAspectRatio="xMidYMid meet">

<g transform="translate(0.000000,2160.000000) scale(0.100000,-0.100000)"
fill="#000000" stroke="none">
<path d="M30190 19879 c-224 -17 -662 -69 -872 -105 -309 -52 -756 -168 -1237
-320 -359 -114 -573 -200 -886 -356 -1590 -794 -2740 -2015 -3488 -3703 -600
-1355 -809 -2809 -607 -4225 152 -1065 524 -2126 1052 -3000 402 -665 1057
-1362 1773 -1885 718 -525 1665 -993 2562 -1265 576 -176 1116 -278 1763 -335
96 -8 213 -20 260 -26 183 -23 1074 2 1445 41 358 38 966 168 1430 305 436
129 889 326 1221 531 60 36 163 98 229 137 537 314 931 612 1326 1007 697 695
1088 1396 1418 2546 173 603 297 1269 355 1909 33 355 38 465 43 993 l6 542
-3427 0 -3426 0 0 -1275 0 -1275 1800 0 c1239 0 1800 -3 1800 -10 0 -6 -8 -27
-19 -48 -15 -30 -19 -69 -24 -197 -24 -644 -261 -1189 -700 -1611 -393 -378
-1019 -703 -1652 -859 -369 -91 -721 -126 -1175 -119 -281 4 -416 15 -560 45
-52 11 -149 29 -215 40 -805 134 -1572 474 -2285 1012 -204 154 -295 231 -454
387 -415 405 -707 848 -931 1415 -139 353 -255 791 -293 1115 -6 47 -18 105
-26 130 -9 25 -16 62 -16 84 0 21 -5 66 -10 100 -57 348 -68 534 -51 851 36
659 155 1211 386 1800 293 747 700 1371 1180 1808 451 412 961 709 1575 918
222 76 703 167 1080 205 215 21 717 30 910 15 904 -68 1680 -345 2495 -890
335 -224 691 -512 993 -802 56 -55 107 -99 113 -99 13 0 2119 1539 2119 1549
0 15 -224 256 -414 447 -952 951 -2071 1640 -3361 2070 -647 215 -1285 346
-1948 399 -209 17 -1049 19 -1257 4z"/>
<path d="M420 12010 l0 -7361 2343 4 c2501 4 2363 1 2962 52 927 80 1823 235
2365 410 572 185 1179 499 1664 859 212 158 582 507 798 753 573 653 996 1403
1317 2338 263 762 409 1478 471 2300 16 218 24 778 11 865 -6 41 -17 174 -26
295 -27 393 -53 621 -106 940 -137 819 -415 1667 -800 2437 -449 897 -1069
1665 -1769 2190 -701 525 -1422 861 -2180 1017 -490 100 -1229 186 -2105 243
-127 8 -886 12 -2562 15 l-2383 4 0 -7361z m5040 4692 c30 -6 134 -16 230 -22
541 -34 1099 -142 1455 -281 232 -91 488 -240 695 -405 123 -98 370 -349 485
-494 312 -389 531 -803 716 -1348 174 -515 278 -1028 329 -1622 15 -169 21
-779 10 -970 -28 -480 -103 -952 -219 -1375 -187 -684 -422 -1184 -765 -1625
-106 -136 -345 -381 -471 -483 -254 -205 -574 -377 -923 -498 -274 -94 -781
-202 -1172 -248 -390 -47 -1231 -82 -1410 -60 -41 5 -226 13 -410 18 -184 5
-410 13 -502 17 l-168 7 0 4697 c0 2583 3 4700 7 4704 12 12 2049 0 2113 -12z"/>
<path d="M16950 15594 c-491 -44 -880 -150 -1296 -354 -209 -102 -377 -211
-520 -338 -273 -242 -489 -593 -585 -951 -65 -242 -80 -307 -96 -435 -27 -213
-24 -580 5 -741 71 -382 186 -660 443 -1075 153 -248 370 -538 553 -738 l76
-84 -183 -125 c-471 -324 -879 -656 -1202 -978 -173 -172 -251 -266 -375 -453
-308 -462 -485 -1063 -489 -1659 -4 -600 254 -1336 653 -1867 183 -243 438
-485 651 -617 376 -234 964 -439 1403 -489 409 -47 661 -50 962 -12 604 77
1060 217 1621 497 383 192 790 469 1056 718 29 27 56 47 61 45 5 -1 208 -238
451 -525 l442 -523 1215 0 c758 0 1214 4 1212 9 -1 6 -439 537 -971 1182 -533
644 -971 1177 -974 1185 -5 14 530 588 699 749 58 55 176 178 263 274 87 95
244 263 349 373 105 109 217 228 248 262 l58 63 -593 631 c-325 347 -596 631
-601 631 -4 1 -18 -11 -30 -26 -167 -215 -708 -796 -1333 -1432 -177 -180
-204 -204 -216 -191 -54 57 -1777 2081 -1777 2088 0 4 10 13 23 21 12 8 81 57
152 111 72 53 162 115 200 137 76 45 273 205 473 386 167 151 529 520 615 627
247 307 395 645 453 1033 20 139 15 504 -11 667 -108 697 -478 1167 -1215
1544 -378 194 -743 305 -1180 361 -119 16 -585 28 -690 19z m427 -1384 c232
-55 460 -190 627 -371 116 -126 180 -252 216 -430 18 -89 21 -131 18 -284 -3
-173 -5 -184 -36 -273 -64 -186 -156 -348 -268 -470 -102 -113 -657 -562 -695
-562 -8 0 -27 -14 -43 -30 -16 -17 -35 -30 -41 -30 -7 0 -24 -9 -37 -20 l-26
-20 -83 103 c-46 56 -118 138 -160 182 -133 140 -421 547 -504 714 -96 192
-136 421 -105 596 5 28 16 95 25 150 29 181 66 290 135 390 104 151 338 305
536 354 112 28 328 28 441 1z m213 -5780 c540 -646 985 -1181 988 -1189 10
-25 -263 -276 -466 -428 -241 -182 -548 -352 -760 -423 -187 -63 -332 -83
-537 -77 -266 8 -398 46 -665 191 -171 93 -264 162 -395 291 -201 198 -304
338 -404 545 -76 156 -94 235 -94 410 0 116 4 163 21 235 107 436 313 758 791
1235 222 222 298 287 424 366 76 47 83 50 99 35 9 -9 458 -545 998 -1191z"/>
<path d="M18777 3378 c-199 -15 -396 -107 -542 -254 -251 -250 -311 -634 -151
-959 106 -214 288 -359 532 -420 130 -34 354 -35 484 -5 210 50 374 178 464
360 57 117 85 224 93 358 l6 102 -376 0 -377 0 0 -95 0 -95 250 0 c212 0 250
-2 250 -15 0 -38 -26 -126 -52 -179 -78 -154 -259 -246 -486 -246 -286 0 -538
193 -607 465 -19 76 -19 234 0 310 73 288 359 495 650 470 165 -14 283 -71
407 -197 l88 -88 101 50 c90 46 99 53 88 68 -97 125 -203 215 -335 281 -148
74 -306 103 -487 89z"/>
<path d="M15095 3370 c-325 -45 -593 -250 -704 -538 -42 -109 -55 -195 -48
-326 20 -420 363 -753 807 -782 158 -10 374 41 494 116 l46 30 0 140 c0 77 -3
140 -6 140 -4 0 -34 -26 -68 -58 -186 -174 -478 -211 -709 -90 -92 48 -213
173 -260 269 -174 353 11 773 388 885 73 22 226 24 305 5 95 -23 210 -84 283
-151 l68 -62 -3 143 -3 144 -94 47 c-148 74 -346 109 -496 88z"/>
<path d="M12731 3360 c-338 -47 -623 -289 -713 -606 -32 -113 -32 -297 0 -407
83 -289 309 -507 611 -589 110 -31 333 -30 446 0 247 67 449 230 555 445 52
107 70 179 77 307 15 277 -109 527 -344 696 -168 121 -422 183 -632 154z m315
-224 c296 -94 479 -398 420 -697 -59 -291 -312 -499 -611 -499 -157 0 -305 57
-418 161 -200 182 -258 460 -147 704 80 177 263 321 452 354 85 16 213 6 304
-23z"/>
<path d="M21223 3332 l-163 -2 0 -780 0 -780 338 0 c282 0 347 3 393 16 136
40 229 116 286 231 33 67 38 86 41 168 5 102 -12 179 -54 251 -33 57 -120 137
-182 168 l-52 26 35 31 c19 17 49 61 67 97 32 64 33 71 33 188 0 119 -1 122
-35 189 -45 89 -114 147 -208 175 -73 21 -202 27 -499 22z m383 -197 c84 -25
122 -79 131 -184 10 -120 -36 -206 -132 -247 -29 -13 -77 -19 -172 -22 l-133
-4 0 236 0 236 128 0 c84 0 146 -5 178 -15z m124 -674 c59 -31 88 -57 113
-106 25 -49 34 -163 18 -223 -16 -57 -69 -114 -134 -143 -47 -21 -69 -24 -239
-27 l-188 -4 0 267 0 267 193 -4 c179 -3 195 -5 237 -27z"/>
<path d="M22403 3332 l-163 -2 0 -780 0 -780 338 0 c191 0 356 5 381 11 201
46 341 222 341 429 0 168 -90 317 -236 390 -27 14 -51 26 -53 27 -2 1 13 16
33 34 155 135 153 431 -3 572 -104 94 -187 107 -638 99z m383 -197 c89 -26
136 -100 136 -214 1 -108 -38 -176 -122 -214 -36 -17 -71 -22 -177 -25 l-133
-4 0 236 0 236 123 0 c80 0 141 -5 173 -15z m81 -660 c71 -21 126 -65 154
-122 19 -39 24 -64 24 -133 0 -99 -21 -151 -80 -195 -64 -50 -139 -65 -316
-65 l-159 0 0 265 0 265 163 0 c116 0 178 -4 214 -15z"/>
<path d="M10640 2550 l0 -780 318 0 c354 0 394 5 519 66 189 90 336 268 405
484 20 66 23 94 22 235 0 147 -2 167 -27 240 -91 269 -278 453 -525 516 -67
17 -112 19 -394 19 l-318 0 0 -780z m640 562 c95 -33 143 -63 210 -131 115
-116 170 -259 170 -440 -1 -277 -137 -485 -367 -558 -65 -20 -93 -23 -243 -23
l-170 0 0 592 0 591 173 -6 c131 -5 185 -11 227 -25z"/>
<path d="M13780 2550 l0 -780 338 2 337 3 0 90 0 90 -222 3 -223 2 0 685 0
685 -115 0 -115 0 0 -780z"/>
<path d="M15750 2550 l0 -780 400 0 400 0 0 95 0 95 -275 0 -275 0 0 270 0
270 275 0 275 0 0 95 0 95 -275 0 -275 0 0 230 0 230 275 0 275 0 0 90 0 90
-400 0 -400 0 0 -780z"/>
<path d="M20167 3318 c-3 -7 -147 -357 -321 -777 -174 -420 -316 -765 -316
-767 0 -2 56 -4 124 -4 l124 0 88 220 88 220 295 0 296 0 86 -218 87 -217 127
-3 c73 -1 125 1 123 6 -1 5 -147 357 -322 781 l-320 771 -77 0 c-52 0 -78 -4
-82 -12z m197 -659 c47 -129 86 -239 86 -242 0 -4 -90 -7 -200 -7 -110 0 -200
3 -200 7 0 4 46 128 102 276 100 264 102 269 114 236 6 -19 50 -140 98 -270z"/>
<path d="M23562 2568 c-171 -420 -314 -771 -318 -781 -6 -16 2 -17 116 -15
l122 3 87 217 86 218 296 0 295 0 88 -220 88 -220 125 0 c106 0 124 2 119 15
-3 8 -145 353 -317 767 -171 414 -314 759 -316 766 -4 8 -30 12 -83 12 l-77 0
-311 -762z m497 120 c55 -147 101 -270 101 -273 0 -3 -93 -5 -206 -5 -161 0
-205 3 -202 13 21 60 202 536 204 534 1 -1 47 -122 103 -269z"/>
<path d="M24780 2550 l0 -780 110 0 110 0 0 570 0 570 531 -567 531 -568 84
-3 84 -3 0 781 0 780 -105 0 -105 0 -2 -574 -3 -575 -540 574 -540 574 -77 0
-78 1 0 -780z"/>
<path d="M26644 2559 c-175 -424 -321 -776 -322 -781 -2 -5 50 -7 123 -6 l127
3 87 217 86 218 291 0 291 0 33 -77 c17 -43 59 -142 92 -220 l60 -143 124 0
c68 0 124 2 124 4 0 2 -142 347 -316 767 -174 420 -318 770 -321 777 -4 8 -30
12 -82 12 l-77 0 -320 -771z m495 131 c56 -146 101 -268 101 -272 0 -5 -90 -8
-201 -8 -163 0 -200 3 -197 13 6 25 193 536 195 534 1 -2 47 -122 102 -267z"/>
<path d="M17160 2529 c-38 -15 -61 -40 -82 -88 -23 -55 -18 -87 29 -165 20
-32 31 -61 26 -65 -109 -73 -146 -122 -158 -203 -13 -84 37 -183 109 -218 79
-38 199 -20 295 45 l52 34 41 -45 c37 -40 44 -44 89 -44 27 0 49 3 49 6 0 4
-25 35 -55 69 -30 35 -55 67 -55 73 0 5 7 15 16 23 9 7 29 33 46 57 l30 44
-23 24 c-12 13 -27 24 -33 24 -6 0 -29 -24 -51 -54 l-40 -53 -77 95 c-43 52
-78 98 -78 102 0 3 18 21 41 39 59 48 79 86 79 151 0 71 -26 115 -83 140 -45
21 -126 25 -167 9z m152 -99 c36 -45 9 -123 -53 -156 l-33 -16 -33 36 c-28 30
-33 43 -33 85 0 39 4 52 23 65 32 23 105 15 129 -14z m-24 -386 l92 -106 -51
-41 c-42 -33 -61 -41 -104 -45 -127 -10 -190 85 -136 205 16 35 76 90 101 92
3 1 47 -47 98 -105z"/>
</g>
</svg>
