<?xml version="1.0" standalone="no"?>
<!DOCTYPE svg PUBLIC "-//W3C//DTD SVG 20010904//EN"
 "http://www.w3.org/TR/2001/REC-SVG-20010904/DTD/svg10.dtd">
<svg version="1.0" xmlns="http://www.w3.org/2000/svg"
 width="3840.000000pt" height="2176.000000pt" viewBox="0 0 3840.000000 2176.000000"
 preserveAspectRatio="xMidYMid meet">

<g transform="translate(0.000000,2176.000000) scale(0.100000,-0.100000)"
fill="#000000" stroke="none">
<path d="M2105 15033 c-11 -3 -26 -10 -32 -15 -10 -8 -13 -792 -13 -3858 l0
-3849 26 -20 c27 -21 27 -21 1290 -21 1138 0 1268 2 1304 16 22 9 51 13 64 10
30 -7 278 19 364 39 35 8 75 15 88 15 51 0 350 87 504 147 238 92 517 247 669
371 24 20 71 55 103 79 129 95 325 310 478 525 120 167 333 564 379 704 11 33
33 94 50 138 42 109 119 370 160 541 52 221 104 569 128 865 19 230 22 847 5
1010 -25 241 -33 311 -48 430 -8 69 -24 161 -34 205 -11 44 -22 100 -25 125
-4 25 -15 71 -26 103 -10 31 -19 66 -19 76 0 11 -21 79 -46 153 -25 73 -49
147 -54 163 -17 64 -104 266 -172 400 -74 145 -159 286 -237 392 -25 34 -64
88 -86 119 -68 98 -348 372 -479 468 -202 150 -424 282 -601 358 -91 39 -283
111 -330 123 -27 7 -63 18 -79 24 -44 18 -223 62 -309 77 -42 7 -81 15 -85 18
-5 3 -65 12 -133 20 -69 9 -139 20 -155 26 -16 5 -92 14 -169 19 -139 10
-2442 13 -2480 4z m2370 -1447 c28 -9 60 -16 73 -16 72 0 315 -104 455 -193
87 -56 290 -264 358 -367 95 -142 219 -401 251 -525 6 -22 16 -56 24 -75 25
-65 64 -232 84 -355 6 -38 15 -92 20 -120 5 -27 14 -102 20 -165 6 -63 13
-135 16 -159 10 -75 5 -748 -6 -891 -28 -370 -80 -654 -166 -910 -9 -25 -18
-56 -21 -70 -9 -46 -116 -274 -175 -374 -184 -312 -463 -524 -802 -611 -125
-32 -280 -48 -516 -51 -162 -3 -187 -1 -197 13 -10 13 -13 519 -13 2448 0
1338 3 2435 8 2440 4 4 126 5 272 2 201 -4 277 -9 315 -21z"/>
<path d="M11147 15028 c-16 -12 -17 -251 -17 -3866 0 -2631 3 -3860 10 -3873
10 -19 32 -19 889 -19 805 0 880 1 892 17 12 13 14 197 16 1091 3 1008 4 1075
20 1097 10 12 54 69 98 125 44 57 91 120 105 141 14 21 57 78 95 127 39 50
169 224 290 387 121 163 227 306 236 318 22 28 39 14 78 -62 16 -31 40 -76 53
-101 51 -91 302 -558 360 -670 34 -63 78 -145 99 -182 22 -36 39 -70 39 -75 0
-4 16 -32 35 -60 19 -29 35 -55 35 -59 0 -4 34 -70 76 -148 42 -78 99 -184
127 -236 27 -52 53 -99 57 -105 7 -9 26 -44 132 -245 154 -289 314 -584 386
-712 11 -20 53 -99 93 -175 39 -76 75 -142 79 -148 4 -5 38 -68 75 -140 37
-71 79 -142 93 -157 l27 -28 943 0 c519 0 947 2 952 5 19 12 9 47 -34 123 -78
137 -88 156 -133 242 -25 47 -53 99 -63 115 -10 17 -35 64 -57 105 -22 41 -49
91 -60 110 -11 19 -46 85 -79 145 -32 61 -67 124 -76 140 -50 86 -111 196
-213 390 -38 72 -88 163 -112 203 -24 41 -43 76 -43 79 0 3 -37 71 -82 152
-45 80 -92 166 -106 191 -14 25 -42 75 -63 112 -22 36 -39 69 -39 73 0 3 -20
40 -44 83 -24 42 -59 106 -78 142 -20 36 -46 83 -58 105 -13 22 -49 90 -80
150 -31 61 -89 168 -129 238 -39 70 -71 130 -71 132 0 2 -23 43 -50 89 -28 47
-53 93 -57 103 -4 10 -26 50 -48 88 -23 39 -70 124 -104 189 -35 65 -76 141
-92 168 -16 27 -29 52 -29 55 0 3 -22 44 -49 92 -27 47 -72 131 -101 186 -29
55 -56 105 -60 110 -8 10 -153 274 -223 405 -22 41 -64 118 -94 170 -64 115
-66 139 -15 201 20 25 78 101 127 169 50 68 111 148 136 179 25 31 81 106 126
166 44 61 127 172 184 247 169 223 202 267 239 318 19 26 103 137 185 245 83
109 173 230 202 269 77 106 108 147 223 297 58 76 121 159 140 186 19 26 82
109 140 185 58 75 132 174 165 219 33 45 81 109 106 143 25 34 63 86 84 116
21 30 47 61 57 68 12 9 18 23 16 40 l-3 27 -913 3 c-622 1 -919 -1 -933 -8
-10 -6 -31 -30 -45 -53 -15 -23 -51 -72 -80 -108 -30 -36 -54 -69 -54 -71 0
-3 -43 -63 -95 -134 -108 -147 -198 -271 -390 -534 -75 -102 -184 -250 -243
-329 -59 -79 -129 -176 -157 -216 -66 -95 -129 -181 -255 -351 -106 -143 -149
-203 -320 -439 -52 -71 -111 -150 -131 -175 -20 -25 -56 -75 -80 -111 -24 -36
-76 -108 -115 -160 -77 -103 -178 -240 -237 -321 -64 -90 -97 -128 -110 -128
-9 0 -11 348 -9 1552 l3 1553 -22 18 c-20 16 -77 17 -888 17 -678 0 -871 -3
-884 -12z"/>
<path d="M20720 15033 c-8 -3 -18 -11 -22 -17 -4 -6 -8 -1741 -8 -3856 0
-3465 2 -3848 16 -3868 l15 -22 754 0 755 0 15 24 c14 21 15 262 13 2300 -3
2099 -2 2276 13 2276 11 0 30 -28 55 -77 21 -43 60 -115 86 -161 26 -46 48
-86 48 -89 0 -3 34 -65 75 -139 41 -74 75 -136 75 -139 0 -3 11 -23 25 -46 14
-22 61 -106 104 -187 119 -224 152 -284 171 -317 10 -16 35 -64 58 -105 80
-151 116 -216 139 -252 13 -21 23 -40 23 -43 0 -3 34 -67 76 -143 41 -75 84
-153 94 -172 28 -53 85 -160 113 -210 50 -92 151 -277 189 -350 22 -41 43 -79
48 -85 7 -9 25 -43 130 -240 35 -67 54 -100 102 -182 12 -21 34 -63 50 -93 16
-30 33 -62 38 -70 5 -8 44 -80 86 -160 42 -80 88 -165 101 -190 14 -25 43 -79
65 -120 40 -74 73 -134 200 -360 36 -63 74 -133 85 -155 31 -63 118 -225 150
-280 16 -27 47 -83 68 -123 65 -124 -23 -113 841 -110 l749 3 15 30 c13 27 15
464 18 3862 2 3831 2 3833 -18 3853 -20 20 -31 20 -769 20 -698 0 -750 -1
-770 -17 l-22 -18 3 -2288 c3 -2074 2 -2287 -13 -2287 -10 0 -25 24 -43 67
-15 36 -36 78 -47 91 -10 14 -19 28 -19 32 0 4 -30 63 -68 131 -37 68 -74 138
-82 154 -8 17 -22 41 -31 55 -9 14 -36 61 -59 105 -23 44 -56 105 -73 135 -16
30 -44 82 -62 115 -17 33 -70 130 -117 215 -47 85 -115 214 -153 285 -37 72
-71 135 -75 140 -4 6 -26 44 -48 85 -22 41 -55 104 -74 140 -64 120 -108 198
-139 252 -17 29 -58 105 -91 168 -34 63 -82 154 -109 201 -27 48 -49 89 -49
92 0 3 -14 30 -31 59 -18 29 -59 105 -92 168 -63 121 -73 140 -154 285 -28 50
-66 119 -85 155 -67 124 -112 205 -135 242 -13 21 -23 40 -23 42 0 3 -25 52
-56 108 -31 57 -79 146 -107 198 -27 52 -76 142 -107 200 -32 58 -84 155 -115
215 -32 61 -61 115 -65 120 -8 10 -143 256 -169 307 -8 15 -28 32 -44 38 -32
11 -1488 14 -1517 3z"/>
<path d="M29662 15028 c-7 -7 -12 -16 -12 -21 0 -5 55 -117 121 -250 67 -133
169 -336 226 -452 57 -115 108 -217 113 -225 4 -8 25 -49 46 -90 68 -137 191
-384 222 -445 17 -33 74 -148 127 -255 53 -107 101 -199 105 -205 4 -5 335
-663 734 -1461 l726 -1452 0 -1423 c0 -1128 3 -1429 13 -1449 l13 -25 876 -3
c787 -2 878 0 892 14 14 14 16 157 16 1449 l0 1434 96 193 c53 106 238 474
411 818 173 344 658 1311 1079 2150 420 839 780 1552 799 1585 49 85 49 86 38
104 -9 14 -89 16 -839 19 -456 1 -839 0 -851 -3 -25 -6 -74 -86 -116 -190 -16
-38 -33 -75 -38 -81 -5 -7 -38 -74 -72 -150 -35 -77 -83 -177 -107 -224 -24
-47 -61 -121 -81 -165 -20 -44 -93 -195 -162 -336 -69 -141 -135 -278 -146
-305 -12 -27 -25 -56 -30 -64 -20 -38 -101 -201 -127 -255 -15 -33 -96 -200
-180 -372 -84 -172 -156 -322 -159 -335 -7 -22 -54 -116 -75 -148 -5 -8 -26
-53 -46 -100 -31 -73 -105 -227 -156 -325 -9 -16 -23 -47 -32 -67 -24 -57 -47
-50 -75 20 -13 31 -48 109 -79 172 -143 300 -181 380 -278 580 -58 118 -122
251 -143 295 -22 44 -80 166 -131 270 -51 105 -98 206 -105 225 -7 19 -31 71
-53 115 -46 89 -189 387 -272 565 -30 63 -61 126 -70 140 -9 14 -23 41 -30 60
-8 19 -42 92 -77 162 -35 70 -63 129 -63 132 0 3 -41 88 -91 189 -68 141 -95
186 -112 191 -12 3 -429 6 -927 6 -692 0 -909 -3 -918 -12z"/>
</g>
</svg>
