<?xml version="1.0" standalone="no"?>
<!DOCTYPE svg PUBLIC "-//W3C//DTD SVG 20010904//EN"
 "http://www.w3.org/TR/2001/REC-SVG-20010904/DTD/svg10.dtd">
<svg version="1.0" xmlns="http://www.w3.org/2000/svg"
 width="4096.000000pt" height="3120.000000pt" viewBox="0 0 4096.000000 3120.000000"
 preserveAspectRatio="xMidYMid meet">

<g transform="translate(0.000000,3120.000000) scale(0.100000,-0.100000)"
fill="#000000" stroke="none">
<path d="M23785 31189 c-818 -54 -1604 -314 -2285 -757 -271 -176 -513 -374
-765 -627 -370 -370 -652 -752 -923 -1250 -333 -614 -793 -1866 -1347 -3669
-42 -136 -64 -166 -120 -166 -74 0 -124 46 -237 220 -91 138 -212 301 -802
1083 -248 330 -516 688 -596 797 -80 109 -177 233 -215 276 -370 418 -817 830
-1265 1164 -457 340 -981 634 -1445 810 -345 130 -711 220 -1070 262 -146 17
-649 17 -775 0 -528 -73 -886 -185 -1345 -422 -223 -115 -309 -165 -465 -271
-751 -510 -1204 -1264 -1324 -2205 -124 -968 114 -2152 640 -3194 184 -365
488 -825 1073 -1625 279 -382 810 -1085 863 -1143 26 -30 46 -58 42 -63 -3 -5
-24 -9 -48 -9 -103 0 -260 37 -986 233 -281 76 -707 188 -1133 297 -328 85
-611 123 -917 123 -640 1 -954 -175 -1100 -615 -27 -80 -50 -232 -50 -325 0
-169 50 -416 125 -619 163 -437 555 -1028 1045 -1574 1045 -1165 2443 -2099
3985 -2664 478 -176 1033 -338 1440 -421 131 -26 155 -38 155 -77 0 -24 -24
-74 -55 -117 -54 -73 -115 -324 -115 -470 1 -197 55 -316 238 -521 236 -265
439 -426 722 -574 468 -244 1172 -429 2440 -641 118 -20 310 -54 425 -75 1298
-243 2391 -218 3245 75 398 137 737 330 970 551 l65 62 205 -39 c515 -99 857
-145 1268 -170 244 -15 876 -6 1097 15 658 63 1256 195 1840 406 613 221 1680
733 2280 1092 684 411 1160 817 1373 1172 77 128 132 296 132 404 0 265 -325
427 -930 463 -167 10 -192 14 -258 40 -102 41 -184 59 -279 59 -48 0 -85 4
-89 11 -8 13 55 79 113 120 23 16 180 100 350 187 169 87 338 177 374 200 37
23 91 51 120 61 169 58 567 267 872 458 965 604 1786 1338 2377 2128 575 769
921 1569 1051 2435 26 172 37 551 20 701 -93 815 -594 1297 -1473 1416 -164
22 -582 25 -763 5 -348 -39 -728 -128 -1030 -242 -113 -42 -460 -205 -1625
-762 -1054 -504 -1387 -658 -1425 -658 -26 0 -17 78 24 215 22 72 116 362 209
645 195 589 273 840 377 1201 252 872 308 1215 308 1864 0 605 -71 1127 -229
1674 -339 1172 -1056 2063 -2059 2555 -340 168 -677 282 -1092 371 -90 20
-185 44 -211 54 -71 28 -184 50 -312 61 -132 11 -528 11 -705 -1z m10 -2744
c154 -24 292 -60 505 -131 237 -80 377 -136 530 -214 629 -321 1033 -821 1200
-1485 139 -553 115 -1194 -71 -1930 -72 -282 -567 -1754 -1062 -3161 -158
-447 -197 -577 -216 -717 -51 -371 84 -606 399 -694 101 -28 434 -26 590 4
292 56 731 233 1520 613 466 224 1559 780 1609 817 24 19 75 50 111 68 37 19
81 45 98 60 38 32 467 243 651 319 435 182 740 259 1041 260 89 0 187 -5 230
-13 250 -45 460 -162 632 -354 203 -226 278 -421 278 -722 0 -553 -348 -1240
-976 -1926 -328 -358 -665 -621 -1214 -949 -790 -471 -2054 -1070 -3199 -1515
-95 -37 -230 -95 -300 -130 -488 -241 -650 -520 -431 -745 54 -55 107 -84 235
-128 216 -73 471 -138 1098 -277 213 -47 415 -94 450 -105 34 -11 90 -20 124
-20 189 0 392 -80 454 -179 43 -68 40 -122 -11 -199 -162 -242 -694 -572
-1370 -847 -877 -358 -1726 -550 -2665 -605 -443 -26 -843 1 -1199 80 -72 16
-223 45 -336 64 -217 38 -331 64 -396 91 -45 19 -471 98 -624 116 -174 20
-337 1 -521 -61 -239 -80 -308 -128 -594 -416 -180 -181 -250 -244 -325 -293
-492 -326 -1117 -415 -2180 -310 -630 61 -1249 159 -1625 255 -405 105 -727
261 -862 419 -124 145 -135 301 -32 452 18 26 114 131 215 233 200 203 249
274 299 424 23 68 26 94 23 170 -2 76 -8 101 -32 151 -75 153 -266 267 -579
346 -67 17 -163 41 -212 54 -50 12 -245 55 -435 94 -1571 327 -2510 594 -3340
948 -979 418 -1794 1051 -2252 1748 -236 360 -349 719 -294 935 44 170 200
315 396 367 80 21 334 24 455 4 172 -27 538 -105 930 -196 1120 -262 1517
-351 1935 -434 882 -174 1198 -188 1468 -65 135 61 204 129 277 274 37 72 46
189 20 275 -46 160 -142 293 -505 705 -94 107 -203 236 -241 287 -37 50 -169
197 -291 325 -248 260 -314 339 -333 403 -21 69 -41 100 -118 182 -87 94 -362
423 -550 659 -716 900 -1149 1703 -1291 2394 -83 406 -79 798 13 1146 100 378
323 777 573 1021 229 224 521 378 843 442 504 102 1116 -3 1723 -294 183 -88
288 -149 487 -281 207 -138 348 -250 507 -402 130 -126 136 -134 978 -1232
1182 -1542 1803 -2326 1960 -2473 158 -149 356 -260 557 -314 87 -23 118 -26
268 -27 186 -1 255 11 387 65 240 99 447 329 569 634 87 219 292 883 649 2105
154 525 304 1024 335 1109 379 1050 877 1829 1460 2285 323 253 701 413 1076
455 113 13 401 5 524 -14z"/>
<path d="M17130 6598 c0 -2318 4 -3713 10 -3818 52 -864 260 -1501 633 -1947
251 -299 585 -509 1027 -647 192 -59 505 -135 654 -157 170 -27 534 -32 681
-11 119 17 247 48 301 72 l44 19 0 281 c0 263 -1 281 -17 276 -10 -3 -115 -10
-234 -17 -356 -19 -609 9 -828 92 -153 59 -217 95 -299 173 -223 211 -373 604
-441 1156 -39 314 -41 432 -41 2427 l0 1943 695 0 695 0 0 510 0 510 -695 0
-695 0 0 1395 0 1395 -745 0 -745 0 0 -3652z"/>
<path d="M3145 7534 c-1330 -120 -2331 -730 -2830 -1724 -147 -292 -237 -584
-292 -941 -16 -104 -17 -269 -20 -1926 l-4 -1813 790 0 790 0 4 1788 c3 1958
0 1827 63 2146 90 455 294 909 554 1236 93 116 275 290 390 373 115 82 340
195 471 236 460 144 963 108 1380 -100 216 -108 452 -300 616 -504 334 -414
561 -1013 613 -1620 6 -76 10 -749 10 -1837 l0 -1718 790 0 791 0 -4 1813 c-3
1802 -3 1813 -24 1944 -40 241 -87 417 -170 628 -203 516 -533 951 -983 1294
-551 421 -1238 665 -2055 731 -170 14 -702 10 -880 -6z"/>
<path d="M11870 7454 c-19 -2 -87 -9 -150 -15 -349 -33 -795 -142 -1159 -286
-1060 -417 -1802 -1160 -2067 -2068 -80 -274 -114 -526 -114 -843 0 -755 217
-1431 640 -1997 484 -648 1225 -1111 2039 -1274 392 -79 755 -87 1127 -26 486
81 854 231 1237 503 l77 56 0 277 0 278 -92 -44 c-276 -130 -853 -224 -1393
-228 -229 -1 -358 14 -569 67 -836 211 -1334 888 -1462 1991 -22 185 -25 645
-6 810 66 566 224 1018 490 1395 100 143 321 359 457 449 335 221 722 324
1150 308 413 -16 742 -139 1040 -389 392 -329 679 -900 800 -1593 44 -253 45
-271 45 -2072 l0 -1713 795 0 796 0 -4 1727 -3 1728 -22 137 c-137 845 -602
1615 -1284 2125 -581 435 -1341 685 -2123 698 -115 2 -226 1 -245 -1z"/>
<path d="M37215 7449 c-143 -12 -417 -55 -569 -90 -835 -189 -1600 -609 -2093
-1149 -426 -466 -667 -988 -745 -1610 -20 -158 -17 -600 6 -775 81 -642 306
-1189 684 -1665 92 -116 295 -325 417 -430 520 -447 1189 -735 1885 -811 166
-18 506 -15 665 5 538 70 949 227 1368 522 l77 55 0 280 0 281 -33 -21 c-220
-136 -885 -251 -1462 -254 -274 -1 -468 30 -715 115 -646 222 -1074 763 -1243
1574 -57 268 -78 488 -78 804 0 464 70 861 218 1240 329 838 968 1290 1824
1290 544 0 1007 -219 1344 -635 334 -413 556 -1034 605 -1695 6 -82 10 -780
10 -1787 l0 -1653 790 0 791 0 -4 1743 c-2 1611 -4 1750 -20 1847 -116 687
-423 1296 -900 1787 -358 369 -773 634 -1280 817 -466 169 -1077 254 -1542
215z"/>
<path d="M32485 7384 c-456 -35 -657 -75 -925 -181 -528 -208 -946 -618 -1201
-1176 -166 -362 -264 -792 -284 -1242 -8 -168 -95 -3609 -95 -3737 l0 -98 790
0 790 0 0 2131 0 2131 25 126 c91 449 325 894 583 1108 136 113 260 170 472
218 270 60 612 53 891 -19 31 -8 62 -15 68 -15 8 0 11 93 11 320 l0 320 -22
14 c-34 22 -184 63 -300 82 -78 12 -182 17 -428 19 -179 1 -347 1 -375 -1z"/>
<path d="M21413 5568 c3 -1651 4 -1813 20 -1918 81 -533 280 -998 608 -1420
94 -121 315 -348 442 -453 563 -467 1274 -739 2127 -813 236 -21 783 -15 990
10 874 107 1565 410 2096 919 509 488 817 1087 947 1837 21 124 21 134 24
1883 l3 1757 -790 0 -790 0 0 -1722 c0 -1079 -4 -1768 -10 -1843 -62 -734
-383 -1442 -838 -1848 -365 -326 -846 -486 -1339 -447 -700 55 -1240 451
-1588 1165 -154 314 -245 621 -302 1016 -15 102 -17 302 -20 1897 l-4 1782
-790 0 -790 0 4 -1802z"/>
</g>
</svg>
