<?xml version="1.0" standalone="no"?>
<!DOCTYPE svg PUBLIC "-//W3C//DTD SVG 20010904//EN"
 "http://www.w3.org/TR/2001/REC-SVG-20010904/DTD/svg10.dtd">
<svg version="1.0" xmlns="http://www.w3.org/2000/svg"
 width="1280.000000pt" height="720.000000pt" viewBox="0 0 1280.000000 720.000000"
 preserveAspectRatio="xMidYMid meet">

<g transform="translate(0.000000,720.000000) scale(0.100000,-0.100000)"
fill="#000000" stroke="none">
<path d="M5360 5709 c-348 -7 -901 -25 -1040 -34 -41 -2 -138 -7 -215 -11 -77
-3 -169 -7 -205 -9 -261 -15 -291 -17 -465 -30 -169 -13 -560 -49 -640 -60
-67 -9 -131 -18 -150 -21 -11 -2 -46 -9 -78 -15 -158 -28 -304 -95 -367 -167
-95 -107 -153 -315 -181 -642 -15 -183 -19 -398 -9 -495 4 -44 13 -137 19
-206 14 -147 66 -370 105 -448 99 -194 266 -259 831 -320 85 -9 125 -13 285
-26 36 -3 90 -7 120 -10 211 -18 826 -52 1105 -61 105 -3 195 -7 202 -9 79
-25 3048 -25 3126 0 7 2 100 6 207 9 198 6 446 18 735 36 299 18 330 20 375
25 25 3 79 7 120 10 41 3 95 7 120 10 25 3 72 7 105 10 407 38 637 88 751 166
60 41 113 105 145 174 46 103 93 308 103 455 8 117 16 222 24 305 4 39 4 99 1
135 -4 36 -9 103 -13 150 -19 244 -26 304 -49 405 -50 217 -103 317 -207 387
-84 56 -267 111 -445 133 -27 3 -61 8 -75 10 -14 2 -52 6 -85 10 -33 3 -76 8
-95 10 -78 9 -350 31 -605 50 -133 9 -337 21 -525 30 -69 3 -168 8 -220 10
-701 38 -1936 53 -2810 34z m1360 -314 c19 -1 87 -6 150 -10 63 -4 133 -8 155
-10 22 -2 74 -6 115 -10 194 -16 440 -53 514 -77 201 -65 337 -197 399 -385
41 -124 47 -188 47 -493 0 -244 -3 -299 -20 -380 -61 -296 -256 -469 -585
-519 -158 -24 -519 -57 -760 -71 -209 -11 -775 -11 -985 1 -149 8 -477 35
-540 44 -14 2 -50 6 -80 10 -164 18 -194 23 -275 47 -178 51 -311 158 -383
308 -51 109 -69 182 -83 355 -12 148 -7 427 11 550 24 167 109 332 213 416 91
73 230 128 389 154 99 16 359 43 489 51 57 3 106 8 109 9 3 2 95 7 205 10 110
4 202 10 205 13 5 5 643 -6 710 -13z"/>
<path d="M10055 3208 c-99 -92 -9 -250 117 -206 96 34 105 178 14 222 -54 25
-91 21 -131 -16z m144 -14 c38 -32 49 -80 27 -123 -52 -99 -196 -65 -196 46 0
92 99 137 169 77z"/>
<path d="M10081 3118 c1 -35 4 -51 6 -35 6 35 36 36 59 2 9 -14 21 -25 26 -25
6 0 3 12 -7 26 -13 20 -14 28 -5 34 6 4 10 18 8 31 -2 20 -9 24 -45 27 l-43 3
1 -63z m76 36 c7 -19 -13 -34 -44 -34 -18 0 -23 6 -23 25 0 21 5 25 30 25 19
0 33 -6 37 -16z"/>
<path d="M580 2656 c0 -2 53 -50 117 -106 l117 -103 8 28 c4 16 5 32 2 37 -3
5 -45 40 -92 78 -68 55 -94 70 -119 70 -18 0 -33 -2 -33 -4z"/>
<path d="M795 2618 c72 -64 82 -70 118 -66 l32 3 -65 53 c-50 40 -73 52 -99
52 l-34 0 48 -42z"/>
<path d="M940 2646 c72 -66 680 -596 684 -596 3 0 6 20 6 44 l0 45 -177 143
c-98 78 -243 195 -323 260 -112 91 -152 118 -175 118 -25 0 -27 -2 -15 -14z"/>
<path d="M1121 2637 c14 -12 135 -118 268 -235 l241 -213 0 48 0 48 -107 85
c-58 47 -163 131 -232 187 -107 88 -131 103 -161 103 l-35 -1 26 -22z"/>
<path d="M1290 2646 c8 -7 76 -66 150 -131 74 -65 147 -129 163 -143 l27 -26
0 37 c0 35 -6 41 -147 156 -114 93 -155 121 -178 121 -25 0 -27 -2 -15 -14z"/>
<path d="M3259 2647 c41 -41 357 -314 360 -311 2 2 -4 24 -13 48 -15 39 -38
62 -152 153 -94 76 -145 110 -170 114 -24 4 -32 3 -25 -4z"/>
<path d="M3476 2603 c33 -28 60 -50 61 -49 2 1 -4 23 -13 48 -15 45 -17 46
-61 50 l-45 3 58 -52z"/>
<path d="M5110 2655 c0 -1 52 -48 115 -104 l115 -102 0 38 c-1 35 -7 42 -77
98 -53 41 -89 62 -115 66 -21 3 -38 5 -38 4z"/>
<path d="M5311 2634 c27 -29 29 -29 29 -5 0 12 -9 20 -26 24 l-25 4 22 -23z"/>
<path d="M5810 2653 c0 -2 17 -18 37 -36 20 -18 73 -65 118 -104 44 -40 82
-73 85 -73 3 0 10 8 17 18 9 16 -2 29 -95 103 -58 46 -118 87 -134 90 -15 4
-28 5 -28 2z"/>
<path d="M6040 2590 c41 -38 78 -69 81 -70 4 0 9 7 12 15 8 19 -90 103 -135
115 -30 9 -27 3 42 -60z"/>
<path d="M6130 2649 c0 -6 61 -52 63 -47 1 1 10 13 20 24 18 22 18 22 -32 25
-28 2 -51 1 -51 -2z"/>
<path d="M7260 2655 c0 -3 166 -151 318 -284 l82 -72 0 45 0 44 -137 113 c-76
61 -146 119 -156 127 -14 12 -107 35 -107 27z"/>
<path d="M7441 2651 c0 -5 98 -92 187 -166 l32 -27 0 34 c0 30 -8 41 -71 93
-48 39 -84 60 -110 65 -22 4 -39 5 -38 1z"/>
<path d="M7620 2649 c0 -4 9 -13 20 -19 16 -8 20 -8 20 3 0 8 -9 17 -20 20
-11 3 -20 1 -20 -4z"/>
<path d="M9200 2654 c0 -3 398 -354 402 -354 4 0 1 91 -4 94 -1 1 -72 58 -157
126 -128 103 -162 125 -198 130 -23 4 -43 6 -43 4z"/>
<path d="M9381 2651 c0 -8 206 -185 221 -190 6 -2 8 1 3 9 -5 8 -2 18 8 24 13
10 2 23 -71 81 -58 46 -98 71 -124 75 -21 4 -38 5 -37 1z"/>
<path d="M9562 2651 c2 -4 40 -40 85 -80 72 -63 87 -72 116 -69 l34 3 -85 69
c-48 38 -100 72 -119 76 -19 5 -33 5 -31 1z"/>
<path d="M9730 2650 c0 -4 10 -15 23 -23 12 -9 49 -41 82 -71 53 -49 65 -56
103 -56 l43 0 -87 72 c-61 49 -100 74 -126 78 -21 4 -38 4 -38 0z"/>
<path d="M10080 2650 c0 -8 34 -40 43 -40 4 0 7 8 7 19 0 12 -9 20 -25 23 -14
3 -25 2 -25 -2z"/>
<path d="M10851 2651 c0 -5 214 -193 888 -782 l91 -80 -1 58 0 58 -256 205
c-141 113 -348 280 -461 372 -129 104 -217 168 -234 170 -15 3 -28 2 -27 -1z"/>
<path d="M11201 2651 c0 -5 206 -186 346 -306 l47 -40 -24 40 c-61 102 -53 94
-260 265 -38 31 -112 59 -109 41z"/>
<path d="M12140 2590 c55 -50 78 -65 88 -58 6 6 12 16 12 22 -1 19 -103 91
-139 97 -35 6 -34 5 39 -61z"/>
<path d="M12258 2637 c11 -11 25 -16 31 -13 20 12 12 24 -20 28 -30 5 -30 5
-11 -15z"/>
<path d="M12400 2648 c-74 -27 -62 -129 17 -144 27 -5 37 -1 63 24 35 35 38
60 10 94 -22 29 -56 39 -90 26z m74 -24 c35 -34 5 -114 -43 -114 -28 0 -71 39
-71 64 0 12 7 32 16 44 18 26 74 30 98 6z"/>
<path d="M12397 2614 c-4 -4 -7 -23 -7 -42 0 -43 11 -36 12 7 1 23 6 31 20 31
19 0 25 -26 7 -32 -6 -2 0 -12 12 -23 13 -11 18 -13 13 -5 -5 8 -9 26 -9 40 0
18 -6 26 -20 28 -12 2 -24 0 -28 -4z"/>
<path d="M453 2642 c-9 -6 0 -20 30 -48 34 -33 242 -216 310 -272 16 -14 17
-12 17 25 0 39 -2 40 -165 171 -91 73 -168 132 -172 132 -5 0 -14 -4 -20 -8z"/>
<path d="M2920 2636 c28 -25 845 -741 862 -754 13 -10 9 6 -15 67 -30 76 -36
83 -117 148 -47 38 -202 163 -345 278 -143 115 -278 224 -299 242 -26 21 -50
33 -70 33 -26 0 -28 -2 -16 -14z"/>
<path d="M3105 2623 c17 -14 82 -71 145 -127 322 -285 452 -397 455 -394 2 2
-6 32 -19 66 -21 59 -28 67 -142 159 -404 328 -397 323 -434 323 l-35 -1 30
-26z"/>
<path d="M4790 2641 c0 -9 80 -81 846 -755 263 -232 310 -275 324 -291 15 -19
-42 25 -166 126 -38 31 -217 177 -399 325 -654 531 -600 489 -603 464 -2 -12
0 -26 5 -30 163 -148 529 -463 540 -464 9 -2 21 -12 27 -24 6 -11 56 -60 112
-109 275 -240 414 -365 414 -370 0 -8 -25 11 -237 183 -109 88 -204 164 -212
169 -22 13 87 -185 123 -225 17 -19 22 -28 12 -20 -23 18 -21 12 19 -63 l30
-56 307 -1 c170 0 308 3 308 7 0 3 -36 68 -80 144 l-81 137 -227 183 c-125
101 -267 216 -316 256 l-90 73 -23 -22 c-13 -12 -23 -25 -23 -29 0 -5 129
-122 287 -261 158 -139 310 -275 337 -301 l51 -49 -50 39 c-50 38 -84 65 -458
371 -119 98 -203 159 -211 156 -9 -3 -16 2 -18 14 -3 17 -69 74 -401 344 -97
79 -147 105 -147 79z"/>
<path d="M4961 2627 c15 -12 97 -85 184 -162 209 -186 195 -177 195 -123 l0
44 -164 132 c-148 118 -168 132 -203 132 l-38 -1 26 -22z"/>
<path d="M7110 2636 c8 -7 134 -118 280 -247 l265 -233 3 39 c4 46 32 19 -293
284 -167 136 -216 171 -239 171 -26 0 -28 -2 -16 -14z"/>
<path d="M9046 2641 c5 -5 171 -151 368 -325 l359 -316 55 0 c66 0 66 1 -58
100 -77 62 -93 70 -130 70 -41 0 -41 1 -38 32 3 32 -6 40 -252 240 -203 166
-261 208 -284 208 -18 0 -26 -4 -20 -9z"/>
<path d="M9956 2607 c109 -97 122 -107 148 -107 14 0 26 4 26 9 0 5 -37 39
-82 75 -59 46 -91 66 -112 66 -28 0 -28 0 20 -43z"/>
<path d="M11055 2631 c11 -10 133 -116 270 -237 138 -120 308 -270 379 -333
l129 -115 18 23 c11 13 19 27 19 32 0 4 -84 76 -187 160 -104 84 -222 181
-263 214 -291 237 -340 275 -361 275 -23 0 -23 0 -4 -19z"/>
<path d="M11375 2640 c3 -5 8 -10 11 -10 2 0 4 5 4 10 0 6 -5 10 -11 10 -5 0
-7 -4 -4 -10z"/>
<path d="M11920 2626 c14 -13 72 -65 129 -115 100 -88 104 -91 118 -71 8 11
13 24 11 29 -2 5 -51 47 -109 95 -87 70 -113 86 -140 86 l-34 0 25 -24z"/>
<path d="M1505 2605 c22 -19 57 -49 79 -67 l38 -32 -15 30 c-21 40 -55 70
-102 89 l-40 16 40 -36z"/>
<path d="M2804 2608 c-5 -17 0 -28 22 -46 27 -23 168 -147 589 -517 187 -164
311 -277 285 -259 -8 6 -140 112 -293 235 -153 123 -289 232 -302 242 l-23 17
19 -61 c11 -34 21 -65 24 -69 3 -5 93 -86 200 -179 106 -94 197 -176 201 -183
7 -11 -17 8 -255 199 -63 51 -117 91 -119 88 -2 -2 6 -33 18 -69 21 -64 25
-69 167 -193 80 -71 162 -143 182 -161 l36 -34 -47 34 c-25 18 -117 90 -203
161 l-158 127 -61 0 -61 -1 32 -27 c17 -15 56 -48 86 -74 30 -27 62 -48 71
-48 9 0 20 -10 25 -23 5 -12 57 -65 117 -117 59 -52 121 -107 138 -122 l31
-28 203 0 c111 0 202 3 202 7 0 4 -26 77 -57 161 -66 177 -38 144 -328 377
-88 71 -287 232 -442 357 -155 125 -284 228 -287 228 -2 0 -8 -10 -12 -22z"/>
<path d="M5720 2605 c-7 -9 -11 -17 -9 -18 2 -2 61 -53 131 -115 69 -62 131
-112 137 -112 6 0 15 9 21 19 9 17 -5 32 -118 123 -155 126 -147 121 -162 103z"/>
<path d="M351 2586 c-12 -14 15 -39 422 -395 l37 -33 0 40 c0 43 2 41 -420
379 -23 19 -30 21 -39 9z"/>
<path d="M11842 2570 c-10 -16 -7 -22 17 -42 16 -13 75 -63 130 -112 96 -84
103 -88 116 -70 8 11 15 22 15 25 0 4 -206 175 -250 206 -13 9 -18 8 -28 -7z"/>
<path d="M5646 2521 c-16 -18 -11 -24 115 -135 73 -64 137 -115 142 -113 6 2
17 12 24 24 13 20 7 26 -114 125 -70 57 -133 107 -139 111 -6 4 -19 -2 -28
-12z"/>
<path d="M7102 2518 c3 -20 71 -83 456 -420 l102 -89 0 43 0 44 -197 159
c-336 273 -351 285 -358 285 -3 0 -5 -10 -3 -22z"/>
<path d="M9040 2521 c0 -13 86 -96 276 -263 152 -134 283 -247 290 -251 8 -4
35 -7 60 -5 l46 3 -327 265 c-179 146 -330 267 -336 268 -5 2 -9 -5 -9 -17z"/>
<path d="M10873 2518 c9 -16 25 -40 34 -54 16 -25 906 -814 918 -814 3 0 5 26
4 58 l0 57 -127 101 c-70 56 -282 226 -472 379 -414 334 -379 307 -357 273z"/>
<path d="M2763 2501 c-10 -28 -7 -31 123 -145 73 -64 135 -116 137 -116 4 0
27 56 27 65 0 2 -232 190 -265 216 -7 5 -15 -3 -22 -20z"/>
<path d="M290 2476 c0 -20 51 -69 243 -237 133 -117 250 -219 260 -227 16 -14
17 -12 17 34 l-1 49 -122 97 c-67 54 -180 145 -252 202 -72 58 -133 106 -137
106 -5 0 -8 -11 -8 -24z"/>
<path d="M11776 2481 c-16 -18 -11 -24 115 -136 l132 -117 18 23 c10 13 19 27
19 31 0 6 -229 194 -256 211 -6 4 -19 -2 -28 -12z"/>
<path d="M5570 2434 c-15 -18 -22 -10 120 -134 52 -46 104 -92 116 -102 20
-18 21 -18 43 6 l22 24 -136 111 c-75 61 -140 111 -145 111 -4 0 -13 -7 -20
-16z"/>
<path d="M1102 2388 c3 -42 7 -45 228 -241 124 -109 242 -212 263 -228 l37
-31 -1 59 0 58 -77 61 c-42 33 -162 129 -265 213 l-188 152 3 -43z"/>
<path d="M2724 2384 c-6 -22 -2 -32 24 -53 17 -14 78 -68 135 -118 l105 -93
11 32 c6 17 11 34 11 38 0 9 -243 208 -264 216 -11 4 -17 -3 -22 -22z"/>
<path d="M11712 2397 c-6 -6 -12 -17 -14 -24 -2 -7 56 -64 127 -127 l130 -115
22 27 c13 15 23 30 23 34 0 9 -256 218 -268 218 -5 0 -14 -6 -20 -13z"/>
<path d="M7100 2368 c0 -28 10 -41 59 -83 32 -27 147 -129 257 -225 109 -96
208 -183 221 -193 l23 -18 0 53 -1 53 -266 215 c-146 118 -272 219 -279 223
-11 6 -14 0 -14 -25z"/>
<path d="M9042 2367 c3 -31 31 -59 278 -275 151 -133 277 -242 280 -242 3 0 4
23 4 51 l-2 51 -277 224 c-152 123 -279 224 -281 224 -3 0 -4 -15 -2 -33z"/>
<path d="M4790 2358 c0 -38 -29 -10 343 -336 l207 -183 0 55 0 55 -257 208
c-327 265 -293 241 -293 201z"/>
<path d="M5494 2355 l-17 -27 48 -41 c27 -23 149 -129 270 -236 121 -107 229
-201 240 -210 19 -16 19 -16 1 14 -98 157 -294 355 -513 518 -8 5 -18 -1 -29
-18z"/>
<path d="M280 2342 c0 -26 27 -53 228 -229 125 -109 244 -214 265 -232 l37
-33 -1 53 0 54 -256 205 c-140 113 -259 207 -264 208 -5 2 -9 -10 -9 -26z"/>
<path d="M11640 2301 c-5 -11 -10 -22 -10 -24 0 -6 222 -204 250 -224 16 -12
21 -10 39 15 l20 29 -138 111 c-76 62 -141 112 -144 112 -4 0 -11 -9 -17 -19z"/>
<path d="M2686 2284 c-3 -9 -6 -21 -6 -28 0 -11 249 -237 269 -244 4 -1 12 13
18 32 l11 34 -139 111 c-76 61 -141 111 -143 111 -2 0 -7 -7 -10 -16z"/>
<path d="M1100 2243 l0 -48 203 -178 c287 -250 299 -270 36 -59 -124 100 -229
182 -233 182 -4 0 -6 -21 -4 -47 l3 -48 224 -197 c329 -289 326 -291 -19 -14
-102 82 -191 153 -197 159 -10 7 -13 -2 -13 -40 l0 -50 196 -174 c108 -96 202
-178 210 -184 19 -14 64 22 93 75 20 36 25 61 29 144 l4 101 -218 175 c-120
96 -239 192 -266 213 l-48 39 0 -49z"/>
<path d="M7100 2226 c0 -33 13 -46 248 -252 136 -119 262 -231 280 -248 l32
-30 0 60 0 59 -267 215 c-146 118 -272 219 -279 223 -11 6 -14 0 -14 -27z"/>
<path d="M9040 2226 c0 -34 13 -47 276 -278 152 -134 279 -244 283 -246 3 -1
4 25 1 57 l-5 59 -85 69 c-309 249 -447 360 -457 367 -10 5 -13 -3 -13 -28z"/>
<path d="M4790 2214 c0 -38 4 -42 256 -264 141 -124 264 -231 275 -239 18 -13
19 -11 19 41 0 64 31 33 -305 303 -115 92 -218 175 -227 183 -17 14 -18 12
-18 -24z"/>
<path d="M11097 2169 c40 -64 84 -107 268 -270 121 -106 272 -239 337 -296 64
-57 119 -103 122 -103 3 0 6 26 6 58 l0 57 -187 151 c-104 83 -273 220 -378
304 -104 84 -196 158 -203 164 -8 5 8 -24 35 -65z"/>
<path d="M280 2197 c0 -36 16 -51 464 -441 l79 -70 -6 58 c-5 52 -10 62 -44
90 -46 38 -399 323 -454 367 l-39 31 0 -35z"/>
<path d="M2643 2156 l-10 -34 189 -166 189 -166 65 0 c35 0 64 2 64 5 0 9
-175 145 -186 145 -7 0 -14 6 -17 13 -4 10 -195 170 -273 229 -7 5 -14 -4 -21
-26z"/>
<path d="M9802 2122 c135 -122 134 -122 172 -122 33 0 36 2 36 30 0 24 -12 39
-69 85 -66 54 -70 55 -130 55 l-63 0 54 -48z"/>
<path d="M9930 2167 c0 -2 18 -18 40 -36 l40 -32 0 36 c0 34 -1 35 -40 35 -22
0 -40 -1 -40 -3z"/>
<path d="M7102 2073 c3 -35 20 -52 308 -305 l305 -268 74 0 c64 0 73 2 61 13
-15 14 -52 44 -410 332 -102 82 -217 175 -256 207 -39 32 -74 58 -78 58 -4 0
-6 -17 -4 -37z"/>
<path d="M9040 2075 c0 -36 -2 -34 509 -482 l106 -93 75 0 c45 0 70 4 65 9 -6
5 -98 81 -206 168 -108 87 -273 220 -367 296 -93 75 -173 137 -176 137 -3 0
-6 -16 -6 -35z"/>
<path d="M4790 2063 c0 -36 7 -44 168 -185 92 -80 176 -155 187 -165 12 -10
54 -47 95 -83 41 -36 77 -68 78 -72 2 -5 8 -8 13 -8 5 0 9 26 8 58 l0 57 -77
61 c-42 34 -164 132 -271 218 -106 86 -195 156 -197 156 -2 0 -4 -17 -4 -37z"/>
<path d="M280 2051 c0 -27 31 -57 293 -287 160 -142 297 -262 302 -268 13 -14
126 -15 122 -1 -3 8 -431 359 -659 541 l-58 45 0 -30z"/>
<path d="M2603 2046 l-11 -35 143 -126 c79 -69 146 -125 149 -125 3 0 6 6 6
14 0 10 13 16 41 18 l41 3 -173 140 c-95 77 -176 141 -179 143 -4 1 -11 -13
-17 -32z"/>
<path d="M2561 1928 c-6 -17 -8 -35 -4 -38 15 -12 258 -225 278 -243 19 -18
20 -17 32 29 11 44 10 48 -10 65 -12 9 -78 63 -147 118 -68 56 -128 101 -131
101 -4 0 -12 -14 -18 -32z"/>
<path d="M7102 1927 c3 -30 28 -56 226 -230 l223 -197 60 0 c32 0 59 2 59 4 0
6 -558 456 -565 456 -3 0 -5 -15 -3 -33z"/>
<path d="M9040 1928 c1 -29 15 -45 127 -143 69 -60 171 -149 225 -197 l100
-88 59 0 c32 0 59 2 59 4 0 5 -121 104 -437 358 -67 54 -124 98 -127 98 -3 0
-6 -15 -6 -32z"/>
<path d="M4790 1917 c0 -32 11 -44 187 -198 103 -90 200 -176 217 -191 26 -23
40 -28 89 -28 31 0 57 3 56 8 0 6 -480 397 -529 431 -19 13 -20 11 -20 -22z"/>
<path d="M280 1905 c0 -30 -9 -21 268 -264 l173 -151 57 0 c47 1 54 3 41 13
-8 7 -129 104 -268 217 -139 113 -257 207 -262 208 -5 2 -9 -8 -9 -23z"/>
<path d="M11252 1894 c3 -39 11 -47 203 -217 l200 -176 65 -1 c37 0 60 4 55 9
-6 5 -118 95 -250 201 -132 106 -248 200 -258 209 -17 14 -18 13 -15 -25z"/>
<path d="M1100 1796 l0 -54 78 -72 77 -72 -62 46 c-34 26 -65 51 -68 56 -12
19 -33 10 -38 -17 -3 -16 -8 -37 -11 -48 -4 -16 11 -34 67 -83 l72 -63 90 5
c98 7 197 25 193 36 -3 8 -48 45 -255 213 -73 59 -135 107 -138 107 -3 0 -5
-24 -5 -54z"/>
<path d="M2526 1828 c-3 -13 -6 -28 -6 -35 0 -6 69 -72 154 -147 l154 -135 11
42 c8 32 7 45 -2 53 -12 11 -273 221 -293 236 -8 5 -14 0 -18 -14z"/>
<path d="M7100 1788 c0 -32 11 -44 145 -161 144 -127 144 -127 195 -127 27 0
50 3 49 8 0 6 -318 265 -369 301 -19 13 -20 11 -20 -21z"/>
<path d="M9040 1788 c0 -30 13 -44 145 -161 l145 -128 54 3 54 3 -191 155
c-105 85 -195 157 -199 158 -4 2 -8 -11 -8 -30z"/>
<path d="M4790 1777 c0 -33 9 -43 123 -144 67 -59 128 -113 135 -120 8 -8 38
-13 70 -13 l57 1 -25 21 c-14 11 -92 75 -175 141 -82 66 -158 127 -167 135
-17 14 -18 12 -18 -21z"/>
<path d="M280 1762 c0 -25 19 -46 131 -143 117 -102 136 -115 185 -125 30 -6
54 -8 54 -4 0 7 -327 275 -357 294 -9 5 -13 -1 -13 -22z"/>
<path d="M11250 1752 c0 -36 6 -43 122 -145 l123 -107 55 0 c66 0 78 -14 -142
164 l-158 126 0 -38z"/>
<path d="M2486 1718 c-3 -13 -6 -28 -6 -34 0 -6 45 -50 100 -98 l100 -87 52 3
53 3 -135 109 c-74 60 -140 113 -146 118 -8 5 -14 1 -18 -14z"/>
<path d="M3270 1687 c0 -10 63 -172 70 -180 4 -4 42 -7 85 -5 l78 3 -104 84
c-129 105 -129 105 -129 98z"/>
<path d="M7100 1646 c0 -30 8 -42 64 -91 61 -53 67 -56 111 -53 l47 3 -93 75
c-140 113 -129 107 -129 66z"/>
<path d="M9040 1647 c0 -31 8 -42 64 -92 61 -53 67 -56 111 -53 l47 3 -68 54
c-38 30 -88 70 -111 89 l-43 34 0 -35z"/>
<path d="M4790 1633 c1 -34 7 -43 56 -85 48 -42 61 -48 100 -48 24 0 44 2 44
4 0 2 -45 41 -100 86 l-100 81 0 -38z"/>
<path d="M7720 1646 c14 -13 56 -51 95 -85 l69 -61 163 0 c90 0 163 3 162 8 0
4 -45 42 -101 85 l-100 77 -71 0 -71 0 35 -37 34 -36 -49 36 c-46 34 -54 37
-120 37 l-71 0 25 -24z"/>
<path d="M8062 1662 c2 -5 35 -37 73 -71 l70 -62 3 56 c4 76 -5 85 -85 85 -36
0 -63 -4 -61 -8z"/>
<path d="M9675 1632 c17 -15 58 -51 90 -79 l60 -53 153 0 c131 0 153 2 150 15
-2 8 -39 44 -83 80 l-80 65 -74 0 -75 0 30 -32 29 -32 -41 32 c-39 29 -48 32
-115 32 l-74 -1 30 -27z"/>
<path d="M10010 1655 c0 -6 88 -88 106 -98 11 -6 14 3 14 48 l0 55 -60 0 c-33
0 -60 -2 -60 -5z"/>
<path d="M11250 1606 c0 -27 8 -41 40 -70 34 -30 47 -36 85 -36 25 0 45 2 45
4 0 6 -158 136 -165 136 -3 0 -5 -15 -5 -34z"/>
<path d="M325 1601 c13 -27 100 -89 110 -80 2 2 -26 28 -61 57 -59 48 -64 50
-49 23z"/>
<path d="M2444 1594 c-6 -22 -1 -32 32 -60 33 -28 47 -33 88 -34 27 0 47 2 45
4 -19 19 -146 116 -151 116 -4 0 -11 -12 -14 -26z"/>
<path d="M975 1553 c66 -57 67 -58 141 -63 41 -3 74 -2 74 1 0 4 -31 32 -69
63 l-70 56 -71 0 -72 0 67 -57z"/>
<path d="M7102 1518 c3 -7 13 -15 24 -17 16 -3 17 -1 5 13 -16 19 -34 21 -29
4z"/>
<path d="M9042 1518 c3 -7 13 -15 24 -17 16 -3 17 -1 5 13 -16 19 -34 21 -29
4z"/>
<path d="M4790 1510 c0 -5 7 -10 16 -10 8 0 12 5 9 10 -3 6 -10 10 -16 10 -5
0 -9 -4 -9 -10z"/>
</g>
</svg>
