<?xml version="1.0" standalone="no"?>
<!DOCTYPE svg PUBLIC "-//W3C//DTD SVG 20010904//EN"
 "http://www.w3.org/TR/2001/REC-SVG-20010904/DTD/svg10.dtd">
<svg version="1.0" xmlns="http://www.w3.org/2000/svg"
 width="3840.000000pt" height="2160.000000pt" viewBox="0 0 3840.000000 2160.000000"
 preserveAspectRatio="xMidYMid meet">

<g transform="translate(0.000000,2160.000000) scale(0.100000,-0.100000)"
fill="#000000" stroke="none">
<path d="M26526 19509 c3 -5 -12 -9 -33 -10 -43 -1 -53 -2 -213 -30 -489 -84
-996 -300 -1435 -613 -343 -244 -718 -625 -948 -964 -32 -46 -57 -85 -57 -87
0 -2 -17 -30 -39 -62 -38 -57 -90 -149 -186 -328 -27 -49 -57 -106 -68 -125
-39 -68 -263 -516 -286 -570 -13 -30 -29 -68 -36 -85 -12 -27 -55 -140 -91
-235 -38 -104 -104 -342 -137 -500 -51 -238 -72 -373 -117 -730 -40 -316 -80
-902 -100 -1465 -24 -687 -31 -952 -40 -1675 -12 -994 -19 -1335 -31 -1650
-41 -1059 -89 -1743 -134 -1900 -37 -131 -58 -247 -51 -291 8 -54 36 -102 73
-126 44 -29 178 -23 273 12 294 108 679 362 820 540 112 143 171 281 211 500
7 39 13 437 19 1145 4 597 11 1231 14 1410 4 179 11 573 16 875 26 1493 68
2387 135 2895 8 58 21 159 30 225 84 639 205 1175 355 1565 12 30 25 66 30 80
32 101 228 514 303 640 110 184 244 369 358 495 116 126 304 255 454 310 57
21 198 45 262 45 275 0 562 -156 708 -385 143 -223 205 -475 205 -835 1 -482
-91 -851 -334 -1340 -255 -513 -665 -1079 -1260 -1740 -66 -74 -213 -234 -326
-355 -319 -343 -393 -436 -461 -585 -140 -306 -93 -597 149 -920 141 -188 384
-462 721 -810 135 -140 271 -284 302 -320 217 -254 294 -514 243 -828 -17
-106 -41 -201 -55 -216 -5 -6 -9 -16 -9 -24 0 -18 -77 -170 -129 -256 -23 -36
-41 -68 -41 -70 0 -7 -76 -121 -174 -261 -346 -495 -1043 -1303 -1766 -2050
-343 -354 -351 -363 -410 -485 -98 -200 -84 -537 34 -840 85 -216 176 -396
282 -557 99 -150 198 -195 317 -144 84 36 148 108 241 271 156 273 523 764
955 1279 63 75 135 161 160 191 309 371 995 1135 1511 1683 113 120 233 255
268 300 329 430 433 917 291 1359 -66 205 -184 399 -348 572 -85 89 -156 146
-452 367 -134 100 -274 206 -311 235 -38 30 -98 78 -135 107 -385 303 -572
460 -767 641 -201 187 -286 300 -317 424 -10 43 -11 64 0 114 30 145 108 231
376 410 179 120 224 150 420 286 77 53 399 293 516 384 242 188 580 493 791
713 229 239 496 572 613 767 6 9 40 65 77 125 227 370 380 762 445 1143 26
151 26 611 0 755 -73 406 -211 732 -437 1035 -84 113 -259 290 -353 359 -75
55 -191 117 -253 136 -86 26 -207 53 -272 61 -34 3 -62 11 -62 16 0 5 -67 8
-155 7 -90 0 -153 -5 -149 -10z"/>
<path d="M10178 15940 c-131 -8 -355 -34 -443 -50 -27 -6 -102 -19 -165 -31
-63 -11 -128 -24 -145 -29 -16 -4 -64 -15 -105 -24 -75 -16 -100 -22 -300 -71
-232 -56 -547 -141 -760 -206 -52 -16 -108 -33 -125 -38 -183 -56 -496 -158
-660 -216 -71 -26 -148 -52 -170 -60 -22 -7 -78 -27 -125 -44 -47 -18 -105
-39 -130 -48 -25 -8 -97 -36 -160 -60 -63 -25 -142 -55 -175 -68 -79 -30 -362
-143 -400 -160 -16 -7 -133 -57 -260 -110 -126 -54 -263 -113 -303 -131 -41
-19 -75 -34 -77 -34 -2 0 -48 -20 -101 -45 -53 -25 -97 -45 -99 -45 -3 0 -146
-67 -360 -168 -143 -68 -818 -407 -925 -464 -41 -23 -122 -67 -180 -98 -58
-32 -145 -79 -195 -105 -49 -26 -130 -71 -180 -100 -152 -88 -228 -132 -270
-155 -68 -38 -237 -141 -307 -186 -37 -24 -70 -44 -73 -44 -3 0 -45 -25 -93
-57 -427 -277 -511 -341 -691 -530 -213 -220 -363 -478 -437 -750 -68 -249
-93 -466 -101 -858 -3 -159 -9 -294 -14 -299 -4 -5 -3 -18 2 -29 8 -14 8 -18
0 -13 -7 5 -11 -10 -11 -48 0 -30 3 -56 8 -58 4 -2 18 -36 32 -77 65 -198 161
-187 363 43 174 198 678 622 1198 1008 210 156 550 399 614 438 13 8 75 49
137 91 113 77 359 237 453 296 55 35 401 249 425 264 99 59 309 183 342 202
24 13 106 60 183 104 139 80 176 101 290 163 33 18 65 36 70 40 9 7 43 26 210
115 39 21 104 56 145 78 194 105 425 223 765 391 342 170 445 219 565 274 25
11 77 34 115 52 39 17 140 62 225 100 163 71 222 98 409 186 62 30 115 54 116
54 2 0 43 18 90 40 47 22 88 40 90 40 2 0 32 13 67 29 206 94 628 245 828 295
14 4 68 17 120 31 449 115 948 158 1375 119 578 -53 920 -179 1170 -430 194
-196 324 -446 389 -754 42 -202 50 -281 49 -540 -1 -299 -21 -484 -87 -790
-74 -342 -217 -729 -361 -975 -19 -33 -38 -67 -41 -75 -4 -8 -46 -73 -93 -145
-265 -404 -615 -819 -1096 -1301 -416 -417 -641 -617 -991 -880 -105 -79 -194
-144 -197 -144 -3 0 -29 -16 -58 -36 -138 -93 -291 -148 -363 -130 -39 10 -93
73 -112 129 -20 60 -20 49 26 1922 13 514 25 1040 45 1975 8 382 17 720 19
750 5 75 -11 211 -31 263 -52 132 -153 182 -306 153 -64 -13 -126 -39 -332
-141 -365 -182 -501 -277 -553 -388 -12 -25 -28 -90 -37 -144 -15 -101 -16
-128 -45 -2273 -5 -415 -14 -1023 -20 -1350 -5 -327 -12 -858 -15 -1180 -7
-658 -9 -687 -71 -759 -23 -26 -81 -66 -172 -117 -75 -42 -158 -90 -185 -106
-26 -15 -49 -28 -52 -28 -2 0 -39 -20 -81 -45 -41 -25 -78 -45 -80 -45 -2 0
-22 -11 -44 -25 -22 -14 -64 -38 -92 -54 -29 -15 -163 -90 -298 -166 -271
-152 -298 -168 -385 -215 -33 -18 -64 -36 -70 -40 -5 -4 -37 -22 -70 -40 -151
-82 -173 -96 -222 -133 -90 -67 -141 -167 -128 -248 8 -46 56 -122 99 -153 36
-27 89 -56 161 -87 28 -12 106 -49 175 -81 69 -33 157 -75 195 -93 39 -18 131
-62 205 -98 285 -136 464 -221 605 -287 265 -123 298 -142 355 -198 71 -72 99
-141 107 -266 5 -90 -6 -877 -29 -2019 -8 -437 -9 -600 -1 -608 13 -13 91 3
258 53 523 155 819 397 923 753 44 151 45 166 52 655 4 323 10 486 18 511 18
54 76 115 127 135 67 25 132 14 244 -41 51 -26 130 -64 175 -85 44 -21 167
-79 271 -130 105 -51 258 -125 340 -165 83 -40 222 -107 310 -150 88 -43 210
-101 270 -130 61 -29 202 -97 315 -153 113 -55 243 -118 290 -140 47 -22 189
-90 315 -152 127 -62 280 -136 340 -165 61 -29 178 -85 260 -125 934 -452 845
-414 995 -415 94 0 111 3 160 27 117 58 258 234 380 478 35 69 67 134 71 145
33 80 43 128 43 205 1 76 -3 91 -29 139 -16 29 -59 80 -95 113 -72 67 -181
123 -1270 651 -96 47 -319 156 -495 242 -176 86 -399 195 -495 242 -96 47
-272 133 -390 190 -118 58 -305 150 -415 203 -110 54 -312 153 -450 220 -137
67 -317 155 -400 195 -549 267 -714 349 -742 371 -40 30 -81 98 -97 161 -10
37 -11 190 -5 690 7 604 8 644 27 685 30 69 75 112 190 184 720 450 1209 826
1767 1362 349 334 756 790 1097 1227 185 237 493 670 605 850 120 192 135 220
230 404 71 138 177 369 194 421 4 14 17 50 29 80 17 46 52 153 100 305 5 17
18 71 30 120 11 50 23 99 25 110 38 150 66 420 66 635 1 266 -28 475 -97 720
-29 101 -41 135 -99 273 -115 278 -301 546 -531 766 -598 571 -1466 844 -2486
781z"/>
<path d="M36065 15785 c-5 -2 -37 -8 -70 -15 -88 -18 -236 -93 -301 -153 -56
-51 -127 -144 -158 -207 -49 -97 -59 -150 -59 -295 0 -116 3 -150 20 -200 76
-218 226 -369 442 -442 66 -22 93 -26 201 -26 111 -1 134 3 205 27 236 81 412
279 457 516 6 30 15 59 19 65 12 12 12 112 0 119 -5 3 -12 26 -16 51 -3 25
-17 75 -30 112 -97 267 -354 451 -631 451 -38 -1 -73 -2 -79 -3z m266 -111
c416 -150 536 -672 225 -978 -120 -118 -248 -171 -416 -170 -232 1 -426 118
-526 319 -182 367 41 797 446 858 70 11 200 -3 271 -29z"/>
<path d="M35895 15478 c-3 -7 -4 -175 -3 -373 l3 -360 40 0 40 0 3 162 c2 142
5 164 20 172 14 7 102 9 148 3 6 -1 53 -71 104 -154 51 -84 100 -161 108 -170
19 -23 102 -26 102 -4 0 7 -45 80 -100 161 -55 81 -100 153 -100 160 0 8 19
16 47 20 118 17 178 83 178 195 0 86 -30 137 -105 176 -30 16 -65 19 -257 22
-181 3 -224 1 -228 -10z m432 -75 c96 -50 92 -172 -7 -223 -36 -18 -56 -20
-188 -18 l-147 3 -3 123 c-3 117 -2 123 19 130 12 5 82 7 155 6 109 -2 141 -6
171 -21z"/>
<path d="M34619 13669 c-110 -17 -187 -82 -294 -252 -76 -121 -242 -387 -274
-439 -9 -14 -53 -86 -98 -160 -44 -73 -93 -155 -109 -183 -102 -186 -241 -347
-327 -379 -63 -23 -110 -15 -153 28 -43 43 -50 106 -34 295 29 346 25 394 -33
521 -41 87 -135 182 -197 198 -71 19 -91 20 -149 5 -70 -18 -140 -64 -218
-141 -60 -59 -175 -207 -220 -282 -90 -150 -197 -365 -253 -505 -28 -72 -55
-139 -60 -150 -5 -11 -30 -72 -55 -135 -26 -63 -60 -143 -76 -177 -16 -35 -29
-65 -29 -68 0 -12 -98 -202 -173 -335 -147 -262 -332 -425 -482 -425 -85 0
-131 37 -185 150 -78 159 -116 359 -145 750 -21 298 -24 321 -46 410 -40 164
-124 290 -224 334 -85 38 -210 25 -326 -34 -19 -10 -92 -77 -164 -150 -124
-126 -133 -133 -185 -144 -37 -8 -103 -10 -200 -5 -116 5 -161 3 -225 -10
-328 -69 -681 -281 -993 -596 -385 -388 -639 -813 -821 -1371 -52 -161 -97
-382 -111 -552 -27 -304 32 -535 173 -684 214 -226 528 -163 983 198 121 96
363 339 517 518 78 90 192 221 252 290 127 145 205 241 261 325 45 68 99 116
130 116 25 0 75 -52 91 -96 131 -351 277 -579 441 -687 110 -73 173 -83 352
-56 282 42 511 237 791 675 46 72 90 139 97 150 6 10 15 26 19 34 4 8 31 55
61 103 73 120 149 167 220 138 40 -17 58 -53 77 -161 46 -254 108 -380 223
-448 43 -25 56 -27 147 -27 95 0 104 2 175 37 101 49 187 116 299 233 159 167
370 466 518 736 130 236 140 254 251 474 106 211 149 273 213 305 78 40 158
21 229 -56 54 -59 71 -100 125 -309 95 -364 120 -441 200 -610 154 -324 348
-451 634 -416 351 42 682 301 989 771 59 90 101 194 102 248 0 46 -24 97 -55
118 -23 15 -31 16 -63 4 -21 -7 -62 -32 -92 -55 -139 -107 -236 -116 -397 -38
-156 75 -252 220 -341 510 -41 133 -53 180 -98 373 -30 130 -117 489 -138 565
-99 366 -294 559 -527 524z m-4680 -2017 c57 -28 76 -64 75 -135 -4 -133 -67
-262 -364 -737 -138 -221 -195 -296 -314 -415 -136 -136 -203 -170 -330 -170
-88 0 -88 0 -116 33 -34 42 -43 94 -30 177 11 70 57 224 71 240 5 5 9 15 9 23
0 28 159 338 211 414 168 239 394 459 559 543 93 48 171 57 229 27z"/>
<path d="M20648 10615 c-2 -1 -37 -6 -78 -9 -276 -25 -572 -165 -795 -377
-226 -215 -337 -432 -352 -681 -7 -122 10 -215 52 -290 14 -24 29 -52 34 -64
15 -34 136 -139 198 -172 369 -195 936 -88 1335 252 293 250 448 638 364 909
-82 261 -320 413 -674 431 -44 2 -82 3 -84 1z"/>
<path d="M18277 10153 c-26 -9 -68 -34 -92 -55 -40 -35 -173 -219 -196 -273
-5 -11 -18 -33 -28 -50 -69 -114 -159 -284 -300 -570 -286 -578 -321 -646
-369 -720 -6 -11 -15 -27 -19 -35 -16 -36 -141 -211 -192 -269 -71 -81 -176
-155 -241 -171 -128 -31 -236 53 -307 239 -74 193 -108 414 -122 781 -7 194
-12 233 -30 282 -12 31 -31 68 -42 82 -30 38 -99 75 -152 82 -132 18 -353
-132 -427 -291 -18 -38 -37 -83 -41 -100 -41 -158 -63 -239 -85 -309 -37 -115
-120 -362 -142 -421 -27 -71 -61 -156 -71 -180 -5 -11 -18 -42 -29 -70 -36
-89 -168 -348 -206 -404 -20 -29 -36 -55 -36 -58 0 -12 -102 -132 -152 -179
-78 -74 -148 -108 -225 -108 -53 -1 -67 3 -104 29 -24 17 -64 56 -89 87 -42
53 -129 214 -164 303 -80 209 -146 472 -161 640 -22 246 -99 396 -240 465 -45
23 -61 25 -175 24 -112 0 -134 -4 -211 -30 -161 -57 -231 -106 -341 -244 -54
-67 -103 -96 -189 -109 -71 -12 -110 -9 -263 15 -252 41 -516 -33 -751 -210
-222 -167 -444 -432 -661 -788 -86 -140 -204 -372 -204 -400 0 -8 -4 -18 -9
-23 -5 -6 -25 -57 -44 -115 -207 -605 -178 -1109 78 -1365 114 -116 249 -165
410 -150 87 8 99 10 209 46 168 56 352 163 558 326 130 103 232 204 378 373
63 73 151 174 196 224 105 119 198 236 253 317 80 120 147 139 195 56 14 -23
42 -89 64 -147 105 -279 290 -530 450 -612 62 -31 72 -33 162 -32 119 1 231
34 357 106 135 77 208 136 344 275 177 182 323 380 513 698 89 147 116 180
161 195 56 19 112 -20 133 -93 6 -18 18 -59 28 -92 9 -33 20 -67 24 -75 97
-208 139 -275 225 -363 176 -177 363 -184 580 -22 131 98 302 290 439 493 31
46 56 85 56 87 0 10 101 153 121 172 14 12 41 29 61 38 34 14 41 14 77 -1 22
-9 51 -30 63 -47 52 -69 52 -69 39 -699 -19 -959 -31 -1581 -41 -2173 -5 -308
-14 -762 -20 -1010 -5 -247 -11 -630 -12 -850 -3 -398 -3 -400 19 -442 28 -51
79 -92 127 -100 20 -3 33 -9 30 -14 -3 -5 159 -9 370 -9 244 0 376 4 376 10 0
6 6 10 13 10 26 0 107 60 130 97 45 74 47 97 57 656 18 1030 30 1677 40 2207
10 501 15 798 40 2223 5 309 14 803 20 1097 26 1276 29 1566 18 1607 -16 63
-69 120 -130 138 -29 8 -52 15 -52 14 -1 0 -23 -7 -49 -16z m-5069 -2200 c41
-30 72 -91 72 -143 0 -60 -32 -182 -76 -292 -113 -284 -435 -796 -612 -976
-192 -195 -374 -260 -463 -166 -45 48 -38 230 16 420 52 179 145 410 213 524
136 227 421 518 597 607 110 56 200 65 253 26z"/>
</g>
</svg>
