<?xml version="1.0" standalone="no"?>
<!DOCTYPE svg PUBLIC "-//W3C//DTD SVG 20010904//EN"
 "http://www.w3.org/TR/2001/REC-SVG-20010904/DTD/svg10.dtd">
<svg version="1.0" xmlns="http://www.w3.org/2000/svg"
 width="3840.000000pt" height="2160.000000pt" viewBox="0 0 3840.000000 2160.000000"
 preserveAspectRatio="xMidYMid meet">

<g transform="translate(0.000000,2160.000000) scale(0.100000,-0.100000)"
fill="#000000" stroke="none">
<path d="M19350 15639 c-371 -38 -790 -179 -1175 -394 -889 -497 -1547 -1280
-1960 -2330 -220 -562 -358 -1201 -395 -1840 -12 -212 -5 -671 14 -856 40
-393 99 -711 202 -1071 396 -1391 1226 -2435 2274 -2860 584 -237 1257 -287
1850 -138 300 75 658 212 901 346 243 134 405 199 599 240 125 27 347 25 455
-5 104 -28 232 -89 317 -152 80 -60 194 -180 246 -261 34 -53 40 -58 75 -58
l37 0 0 1860 0 1860 360 0 360 0 0 50 0 50 -1545 0 -1545 0 0 -50 0 -50 420 0
420 0 0 -1327 c0 -875 -4 -1350 -11 -1392 -23 -143 -88 -268 -224 -431 -271
-322 -688 -556 -1152 -647 -124 -23 -161 -26 -363 -27 -193 0 -242 3 -345 22
-219 42 -403 117 -565 230 -109 76 -266 243 -353 374 -323 487 -595 1414 -706
2413 -59 527 -76 878 -76 1590 0 568 7 756 41 1170 151 1847 631 3038 1388
3441 264 140 567 193 859 149 567 -85 1096 -492 1585 -1222 322 -479 557
-1049 726 -1767 l43 -181 42 -3 41 -3 0 1610 0 1611 -40 0 c-33 0 -57 -12
-154 -82 -487 -349 -724 -361 -1476 -73 -340 130 -517 182 -700 204 -98 13
-347 12 -470 0z"/>
<path d="M11500 15624 c-368 -31 -585 -73 -872 -168 -407 -135 -804 -354
-1180 -654 -156 -123 -496 -461 -619 -612 -643 -795 -1011 -1723 -1126 -2835
-25 -243 -25 -862 0 -1095 52 -480 126 -834 259 -1240 142 -434 338 -842 583
-1215 381 -578 855 -1030 1416 -1352 365 -210 744 -349 1159 -425 116 -21 151
-23 510 -23 359 0 393 2 510 23 576 106 1078 330 1565 696 293 220 628 558
863 872 569 760 921 1737 1003 2784 24 314 13 785 -27 1120 -146 1235 -719
2410 -1533 3145 -609 550 -1320 887 -2036 964 -102 11 -407 21 -475 15z m290
-154 c162 -20 305 -64 455 -140 497 -251 907 -830 1208 -1706 218 -635 368
-1409 439 -2259 17 -209 17 -896 0 -1110 -83 -1035 -296 -1986 -604 -2695
-336 -771 -788 -1246 -1319 -1384 -322 -83 -649 -46 -954 108 -141 72 -279
173 -405 295 -653 637 -1109 2003 -1242 3721 -16 210 -16 828 1 1025 49 601
118 1070 227 1545 326 1420 884 2301 1610 2539 65 21 153 44 194 50 41 6 86
13 100 15 54 8 210 5 290 -4z"/>
<path d="M1440 15380 l0 -50 433 0 432 0 1684 -4608 c926 -2534 1690 -4618
1696 -4631 15 -30 -38 -190 415 1254 199 633 449 1427 555 1765 107 338 570
1812 1030 3275 460 1463 856 2724 881 2803 l45 142 390 0 389 0 0 50 0 50
-890 0 -890 0 0 -50 0 -50 405 0 c223 0 405 -2 405 -5 0 -3 -454 -1478 -1009
-3278 -555 -1799 -1018 -3299 -1028 -3332 l-18 -61 -1214 3326 c-668 1829
-1216 3331 -1219 3338 -3 9 80 12 397 12 l401 0 0 50 0 50 -1645 0 -1645 0 0
-50z"/>
<path d="M22910 15380 l0 -50 450 0 450 0 3 -3512 c3 -3271 4 -3521 20 -3626
62 -401 211 -749 445 -1035 71 -86 228 -242 332 -328 105 -87 302 -215 451
-293 408 -213 857 -343 1399 -403 221 -24 699 -24 905 1 731 87 1334 352 1736
763 275 280 428 584 506 1003 17 89 18 308 20 3763 l3 3667 435 0 435 0 0
-4485 0 -4485 -385 0 -385 0 0 -50 0 -50 3314 0 c2642 0 3315 3 3318 13 2 6 3
790 3 1742 l0 1730 -41 3 -42 3 -6 -108 c-32 -513 -83 -900 -151 -1148 -185
-673 -620 -1278 -1198 -1665 -119 -79 -388 -221 -507 -268 -272 -107 -528
-168 -800 -192 -64 -5 -440 -10 -842 -10 l-728 0 0 2269 c0 1249 3 2272 8
2274 4 3 120 10 259 17 276 13 393 6 558 -32 510 -118 884 -532 1105 -1223 37
-114 95 -350 118 -480 l18 -100 47 -3 47 -3 0 1870 0 1871 -45 0 c-52 0 -47
15 -65 -200 -39 -460 -157 -831 -345 -1082 -209 -279 -486 -427 -891 -478
-155 -20 -570 -11 -771 16 l-43 5 0 2126 0 2126 658 -6 c658 -7 815 -13 1057
-43 593 -73 1045 -274 1385 -616 520 -523 810 -1253 945 -2378 22 -189 19
-180 60 -180 l35 0 0 1660 0 1660 -3870 0 -3870 0 0 -50 0 -50 515 0 515 0 0
-3603 c0 -2362 -3 -3632 -10 -3687 -64 -535 -343 -985 -798 -1289 -627 -419
-1464 -462 -2217 -113 -591 273 -983 732 -1092 1277 -17 86 -18 271 -21 3753
l-2 3662 435 0 435 0 0 50 0 50 -1650 0 -1650 0 0 -50z"/>
</g>
</svg>
