<?xml version="1.0" standalone="no"?>
<!DOCTYPE svg PUBLIC "-//W3C//DTD SVG 20010904//EN"
 "http://www.w3.org/TR/2001/REC-SVG-20010904/DTD/svg10.dtd">
<svg version="1.0" xmlns="http://www.w3.org/2000/svg"
 width="320.000000pt" height="320.000000pt" viewBox="0 0 320.000000 320.000000"
 preserveAspectRatio="xMidYMid meet">

<g transform="translate(0.000000,320.000000) scale(0.100000,-0.100000)"
fill="#000000" stroke="none">
<path d="M1583 2749 c-55 -13 -129 -78 -143 -127 -15 -55 -12 -113 9 -181 37
-118 92 -181 245 -281 132 -86 198 -184 204 -306 3 -56 0 -81 -18 -122 -42
-96 -174 -192 -267 -192 -205 0 -342 243 -244 432 27 54 29 63 18 85 l-14 25
-41 -47 c-53 -60 -76 -129 -76 -225 0 -130 66 -231 185 -285 164 -73 325 -41
454 90 92 92 110 137 110 266 0 102 -1 107 -39 184 -47 94 -139 190 -237 247
-144 84 -223 181 -223 273 0 93 61 142 163 132 68 -7 101 -31 123 -88 l17 -44
1 40 c0 22 3 56 6 76 l6 37 -64 11 c-74 13 -116 13 -175 0z"/>
<path d="M1060 2630 c0 -5 11 -10 25 -10 52 0 93 -26 118 -77 13 -26 104 -250
203 -497 98 -246 185 -451 192 -454 19 -7 18 -8 123 236 l92 214 -25 24 -24
25 -29 -73 c-69 -178 -98 -240 -106 -227 -9 18 -279 735 -290 771 -9 34 10 58
47 58 13 0 24 5 24 10 0 6 -65 10 -175 10 -110 0 -175 -4 -175 -10z"/>
<path d="M1860 2630 c0 -5 13 -10 29 -10 39 0 55 -21 46 -61 -4 -18 -30 -94
-57 -168 l-51 -135 23 -18 c12 -10 25 -18 29 -18 4 0 32 60 61 133 92 228 119
267 182 267 17 0 27 4 23 10 -4 6 -63 10 -146 10 -86 0 -139 -4 -139 -10z"/>
<path d="M1528 2143 c-22 -5 -21 -2 -3 -47 10 -24 26 -40 50 -50 19 -8 43 -29
54 -46 l19 -32 12 22 c38 71 29 123 -24 139 -45 14 -88 20 -108 14z"/>
<path d="M198 1293 c11 -10 50 -96 88 -190 37 -95 71 -173 74 -173 8 0 40 70
105 230 26 63 54 123 63 133 14 16 13 17 -16 17 -25 0 -32 -4 -32 -20 0 -30
-102 -292 -110 -283 -14 16 -110 285 -104 294 3 5 -16 9 -42 9 -45 0 -46 0
-26 -17z"/>
<path d="M2732 1278 c2 -15 11 -24 26 -26 27 -4 28 -23 2 -47 -11 -10 -18 -21
-15 -23 3 -3 16 5 30 18 43 40 29 100 -23 100 -19 0 -23 -5 -20 -22z"/>
<path d="M886 1270 c-64 -20 -109 -87 -109 -165 0 -62 21 -105 70 -142 32 -24
47 -28 117 -31 45 -1 87 1 93 6 7 4 15 24 18 42 5 28 4 31 -4 13 -15 -33 -48
-46 -106 -41 -92 8 -147 71 -147 168 1 94 48 140 142 140 61 0 84 -11 104 -48
l15 -27 1 41 c0 40 -1 42 -37 48 -51 8 -122 6 -157 -4z"/>
<path d="M1140 1268 c0 -3 -3 -15 -6 -25 -6 -15 -4 -16 7 -5 7 6 37 12 67 12
l53 0 -3 -150 c-2 -121 -6 -153 -18 -160 -11 -7 1 -10 39 -10 49 0 53 1 36 14
-16 12 -19 31 -23 161 l-5 147 67 -4 c52 -3 66 -1 64 9 -2 10 -36 14 -141 16
-75 1 -137 -1 -137 -5z"/>
<path d="M1560 1258 c-60 -30 -90 -83 -90 -159 0 -100 69 -169 169 -169 114 0
186 79 179 193 -3 36 -12 67 -24 85 -27 37 -100 72 -149 72 -22 0 -61 -10 -85
-22z m115 2 c29 0 82 -59 95 -104 45 -161 -106 -280 -213 -168 -14 15 -31 40
-36 55 -26 68 -3 175 42 199 32 17 70 27 85 22 8 -2 20 -4 27 -4z"/>
<path d="M2562 1253 c-6 -15 -31 -82 -56 -148 -24 -66 -48 -128 -52 -138 -4
-10 -16 -23 -28 -27 -16 -7 -9 -9 28 -9 39 -1 46 1 37 12 -8 10 -6 28 7 68
l19 54 51 3 50 3 21 -56 c12 -31 21 -62 21 -70 0 -11 12 -15 41 -15 41 0 41 0
20 18 -12 10 -45 78 -76 161 -70 183 -69 180 -83 144z m43 -145 c7 -27 6 -28
-34 -28 -47 0 -48 2 -24 78 l18 55 17 -39 c9 -21 20 -51 23 -66z"/>
<path d="M2907 1260 c-22 -17 -27 -30 -27 -63 0 -38 5 -46 59 -97 73 -67 83
-98 47 -134 -37 -38 -87 -30 -106 17 -8 19 -9 16 -7 -13 2 -35 2 -35 55 -38
47 -3 56 0 82 27 22 22 30 39 30 66 0 33 -8 45 -65 99 -66 63 -80 97 -53 124
21 21 75 15 93 -10 l16 -23 -3 30 c-3 28 -6 30 -49 33 -34 2 -52 -2 -72 -18z"/>
<path d="M638 1113 c3 -140 1 -159 -14 -170 -15 -11 -9 -13 42 -12 46 0 54 2
36 9 -23 10 -23 11 -20 170 l3 160 -25 0 -25 0 3 -157z"/>
<path d="M1898 1263 c9 -3 12 -45 12 -158 0 -136 -2 -155 -17 -164 -14 -8 -5
-10 37 -10 42 0 51 2 38 10 -14 8 -18 24 -18 74 0 65 0 65 29 65 24 0 37 -11
75 -64 50 -68 78 -86 129 -86 l32 1 -37 17 c-20 9 -58 43 -84 75 -44 54 -47
60 -34 80 47 74 48 109 8 147 -18 17 -35 20 -102 19 -45 0 -75 -3 -68 -6z
m129 -18 c46 -32 37 -139 -12 -151 -54 -13 -60 -5 -63 84 l-3 82 28 0 c16 0
38 -7 50 -15z"/>
<path d="M2268 1114 c2 -108 -1 -160 -9 -170 -10 -12 -3 -14 42 -13 43 0 49 2
31 9 -23 10 -23 11 -20 170 l3 160 -25 0 -25 0 3 -156z"/>
<path d="M835 817 c-48 -22 -59 -43 -56 -106 1 -17 24 -47 71 -92 77 -74 89
-110 50 -149 -32 -32 -83 -27 -114 13 l-26 32 0 -32 c0 -38 21 -53 77 -53 88
0 143 79 108 153 -9 20 -41 54 -70 77 -29 23 -56 48 -59 56 -12 31 -5 63 16
78 33 23 66 19 93 -10 l25 -27 0 32 c0 20 -5 31 -14 31 -7 0 -26 2 -42 5 -16
3 -43 -1 -59 -8z"/>
<path d="M1467 780 c-74 -14 -127 -73 -135 -148 -11 -121 70 -202 205 -202 63
0 93 15 93 46 l0 26 -18 -22 c-27 -34 -95 -37 -152 -8 -144 74 -107 298 50
298 48 0 103 -29 111 -60 6 -20 7 -17 8 17 1 32 -3 43 -16 46 -39 11 -110 15
-146 7z"/>
<path d="M1073 773 c16 -4 18 -18 15 -169 l-3 -164 83 0 c79 0 82 1 81 23 0
12 -3 17 -6 10 -7 -18 -67 -27 -92 -14 -18 10 -21 21 -21 81 l0 70 40 0 c27 0
42 -6 49 -17 9 -15 10 -14 11 10 0 26 -2 27 -50 27 l-50 0 0 65 0 65 45 0 c31
0 47 -5 54 -17 9 -15 10 -14 11 10 l0 27 -92 -1 c-51 -1 -85 -3 -75 -6z"/>
<path d="M1713 769 c15 -9 17 -27 17 -150 0 -78 -5 -149 -10 -160 -10 -17 -7
-19 32 -19 27 0 38 3 30 9 -8 5 -16 35 -19 70 l-6 61 35 0 c30 0 40 -7 63 -37
59 -80 87 -103 124 -103 35 0 35 1 12 13 -14 6 -49 40 -78 75 l-54 63 26 30
c41 50 34 119 -16 144 -33 18 -186 21 -156 4z m142 -29 c22 -24 25 -101 5
-125 -9 -11 -26 -15 -54 -13 l-41 3 -3 78 -3 77 39 0 c26 0 45 -7 57 -20z"/>
<path d="M2073 769 c15 -9 17 -28 17 -157 0 -105 -4 -152 -12 -160 -10 -10 5
-12 77 -10 88 3 90 4 92 28 1 14 0 19 -3 12 -9 -20 -54 -34 -86 -27 -28 7 -28
7 -28 81 l0 74 40 0 c27 0 42 -6 49 -17 9 -15 10 -13 11 12 0 30 0 30 -50 27
l-50 -4 0 66 0 66 39 0 c22 0 43 -5 46 -10 8 -13 25 -3 25 16 0 11 -18 14 -92
14 -68 -1 -88 -3 -75 -11z"/>
<path d="M2317 773 c-4 -3 -7 -15 -7 -25 0 -18 1 -18 16 -4 9 10 33 16 60 16
l45 0 -3 -160 -3 -160 38 0 c35 0 37 1 23 16 -13 13 -16 42 -16 160 l0 144 44
0 c27 0 51 -6 60 -16 15 -14 16 -13 16 10 l0 26 -133 0 c-74 0 -137 -3 -140
-7z"/>
</g>
</svg>
