<?xml version="1.0" encoding="UTF-8"?>
<svg version="1.1" xmlns="http://www.w3.org/2000/svg" width="1920" height="1080">
<path d="M0 0 C7.38457601 1.49708316 14.66321628 2.56908299 22.171875 3.16748047 C28.09908422 4.3865001 32.01793224 7.89268679 35.34375 12.81982422 C36.28523954 15.71365786 36.41416 18.14726423 36.22265625 21.17138672 C36.17423584 22.01483643 36.12581543 22.85828613 36.07592773 23.72729492 C36.01993408 24.62407959 35.96394043 25.52086426 35.90625 26.44482422 C35.35879029 36.248551 35.23587848 46.00351593 35.34375 55.81982422 C37.18066406 55.08505859 37.18066406 55.08505859 39.0546875 54.33544922 C47.76604089 51.73458853 56.97091627 52.46469522 65.96875 52.56982422 C67.91251129 52.5817355 69.85627795 52.592799 71.80004883 52.60302734 C83.72477458 52.68413132 95.62091296 52.99431453 107.53125 53.59326172 C116.76859446 54.05440274 125.96951867 53.97337896 135.20336914 53.45898438 C145.07012368 52.91311908 154.92824098 52.65364849 164.80889893 52.58764648 C166.31704721 52.57588265 167.82516495 52.55890014 169.33319092 52.53637695 C188.90353973 52.26001031 188.90353973 52.26001031 195.84375 58.81982422 C199.69140856 63.43701449 199.69002525 67.22895067 199.62109375 73.02685547 C199.19284172 77.33953435 198.00864226 79.38351578 195.34375 82.81982422 C190.61671082 86.56206357 186.85017667 87.79601501 180.96484375 88.21435547 C163.68153053 89.29855339 163.68153053 89.29855339 149.0625 97.80029297 C133.49110822 116.09667831 125.08764358 141.00110572 116.28271484 163.07763672 C111.48573817 175.0938714 106.47021079 187.00314856 101.34375 198.88232422 C94.9330431 213.74805829 88.61100465 228.64552591 82.43188477 243.60913086 C79.80402666 249.96580859 77.15554537 256.3031894 74.34375 262.58154297 C73.90426025 263.56920654 73.46477051 264.55687012 73.01196289 265.57446289 C72.22283781 267.33477068 71.42102357 269.08947691 70.60327148 270.83666992 C68.62684933 274.7591243 68.62684933 274.7591243 69.13183594 278.88964844 C70.8640122 281.64842875 73.00526784 284.01224243 75.15625 286.44482422 C114.33739842 332.03992207 136.02832696 390.70602756 132.03515625 450.99951172 C128.92421581 490.80768404 115.59732673 524.08162189 90.34375 554.81982422 C89.87743164 555.39055664 89.41111328 555.96128906 88.93066406 556.54931641 C77.97303654 569.88347811 66.0253327 582.26238245 52.34375 592.81982422 C51.07990901 593.83442843 49.81695257 594.85013508 48.5546875 595.86669922 C38.38962264 603.95887869 27.82062302 610.73882974 16.34375 616.81982422 C15.22758301 617.4148877 15.22758301 617.4148877 14.08886719 618.02197266 C-34.21443002 643.35200939 -89.56956297 648.07700446 -141.515625 632.47998047 C-156.16029227 627.85107972 -170.13204811 622.08618055 -183.65625 614.81982422 C-184.81125 614.21783203 -185.96625 613.61583984 -187.15625 612.99560547 C-206.52298091 602.49795701 -224.43585812 587.45505499 -237.65625 569.81982422 C-238.25083008 569.04566162 -238.25083008 569.04566162 -238.85742188 568.25585938 C-266.98748743 531.51342975 -274.96396458 484.82480269 -269.06298828 439.58398438 C-264.22990107 406.73871822 -252.79880216 375.96798054 -230.65625 350.81982422 C-229.86476562 349.89556641 -229.07328125 348.97130859 -228.2578125 348.01904297 C-223.21113188 342.26391665 -217.97186578 337.43695451 -211.80859375 332.89013672 C-209.24943873 330.42851755 -209.01388258 329.29577601 -208.65625 325.81982422 C-209.14480973 323.5598112 -209.14480973 323.5598112 -210.140625 321.34130859 C-210.49331451 320.47857834 -210.84600403 319.61584808 -211.2093811 318.72697449 C-211.60434784 317.7985524 -211.99931458 316.87013031 -212.40625 315.91357422 C-212.81048187 314.93443558 -213.21471375 313.95529694 -213.63119507 312.94648743 C-214.9610377 309.73254045 -216.3087261 306.52639306 -217.65625 303.31982422 C-218.58814177 301.07520242 -219.51863071 298.82999773 -220.44775391 296.58422852 C-222.31440056 292.07510295 -224.18667694 287.5683852 -226.06347656 283.06347656 C-229.14788424 275.6497632 -232.16860314 268.21115748 -235.17132568 260.7640686 C-236.65196871 257.0935683 -238.13845627 253.42543791 -239.625 249.75732422 C-239.93492889 248.99241165 -240.24485779 248.22749908 -240.56417847 247.43940735 C-245.67573117 234.83077734 -250.81917463 222.23508296 -255.95663452 209.63699341 C-261.55864521 195.89898403 -267.14370739 182.15445717 -272.6940918 168.39550781 C-275.70856251 160.92396625 -278.73655084 153.4579367 -281.77209473 145.99493408 C-282.62132711 143.905738 -283.46846169 141.81570078 -284.31542969 139.72558594 C-294.61829402 112.1100792 -294.61829402 112.1100792 -316.421875 93.96044922 C-326.34750423 90.46010654 -335.66335576 89.21641564 -346.13476562 88.64794922 C-352.41916577 88.23245169 -357.44868255 87.74549144 -362.30078125 83.31982422 C-367.00326866 77.28050929 -367.25848915 72.2766399 -366.65625 64.81982422 C-364.95543675 60.61254935 -362.46411452 58.25037604 -358.65625 55.81982422 C-351.54598737 52.98452004 -344.91179461 52.39774448 -337.32421875 52.49169922 C-336.26197083 52.49320984 -335.1997229 52.49472046 -334.10528564 52.49627686 C-330.68451007 52.50556956 -327.26437399 52.53703228 -323.84375 52.56982422 C-321.48380942 52.58173003 -319.12386444 52.59279433 -316.76391602 52.60302734 C-302.31421471 52.6839896 -287.89041628 52.99170792 -273.453125 53.59326172 C-262.62770479 54.0416728 -251.85103296 54.00111928 -241.03100586 53.45898438 C-228.9439669 52.86087584 -216.86506651 52.64974618 -204.76437378 52.58764648 C-202.79129217 52.57585858 -200.81823416 52.55885344 -198.84524536 52.53637695 C-196.03469943 52.50614099 -193.22475384 52.49642744 -190.4140625 52.49169922 C-189.16200768 52.47323944 -189.16200768 52.47323944 -187.88465881 52.45440674 C-181.72966406 52.4770863 -176.453789 53.79333786 -170.65625 55.81982422 C-170.27146484 54.49724609 -170.27146484 54.49724609 -169.87890625 53.14794922 C-162.23097343 32.32993401 -139.29440576 16.70571281 -120.07885742 7.52563477 C-82.7186522 -9.49560128 -39.4188472 -8.01846585 0 0 Z M-108.98828125 57.43310547 C-119.88514046 71.72638833 -121.48719303 87.55863062 -119.38818359 105.05419922 C-116.28927144 122.8674651 -105.22227757 140.35327996 -93.05078125 153.27294922 C-91.0661163 155.3838816 -89.19634392 157.53237271 -87.34375 159.75732422 C-78.85591563 169.47470469 -68.72421662 177.63891475 -58.48193359 185.41796875 C-56.63072882 186.83942072 -54.80885681 188.29300917 -52.98828125 189.75341797 C-44.7750699 196.24600816 -36.2637381 201.42087661 -27.01513672 206.31738281 C-15.93213293 212.1990599 -5.33307049 218.81792155 4.94140625 226.01904297 C5.67311035 226.53136475 6.40481445 227.04368652 7.15869141 227.5715332 C8.53655075 228.54414912 9.90779008 229.52623753 11.27099609 230.51928711 C14.67385399 232.94008507 16.0395076 233.81982422 20.34375 233.81982422 C53.92846666 164.08044369 53.92846666 164.08044369 69.34375 90.81982422 C63.14395167 86.68662533 54.64202252 87.55094715 47.37109375 87.39013672 C42.00116851 87.18326961 38.15402731 86.23789373 33.34375 83.81982422 C33.17359375 84.54427734 33.0034375 85.26873047 32.828125 86.01513672 C29.65399153 98.67790323 29.65399153 98.67790323 24.21875 102.19482422 C18.60031553 103.41622302 12.79282777 103.89519713 7.46875 101.38232422 C1.45078213 97.16955669 -0.00624584 89.19829566 -1.234375 82.35888672 C-1.65625 79.81982422 -1.65625 79.81982422 -2.078125 77.28076172 C-3.87641249 67.26616069 -7.42366005 58.42357033 -15.80859375 52.22998047 C-28.98532765 43.8370203 -43.27532719 40.74399984 -58.65625 39.81982422 C-59.50574219 39.76568359 -60.35523438 39.71154297 -61.23046875 39.65576172 C-78.69682358 39.08138234 -97.07590241 44.08405782 -108.98828125 57.43310547 Z M-196.65625 88.81982422 C-198.3578125 89.09826172 -198.3578125 89.09826172 -200.09375 89.38232422 C-201.3621875 89.59888672 -201.3621875 89.59888672 -202.65625 89.81982422 C-204.2552019 93.82004907 -202.99117497 97.18249912 -201.77734375 101.10498047 C-201.55300156 101.84571304 -201.32865936 102.58644562 -201.09751892 103.34962463 C-198.17207623 112.72964124 -194.56916051 121.8614791 -190.99041748 131.00698853 C-188.75410526 136.72292098 -186.54130762 142.44797721 -184.32421875 148.17138672 C-183.86045837 149.36663467 -183.396698 150.56188263 -182.91888428 151.79335022 C-177.7169736 165.21213162 -172.62346042 178.67162423 -167.53125 192.13232422 C-158.91632045 214.88665197 -150.2507802 237.62093134 -141.52432251 260.3327179 C-139.46212357 265.70467723 -137.41949384 271.08363766 -135.390625 276.46826172 C-134.913951 277.72810834 -134.437073 278.9878778 -133.95996094 280.24755859 C-133.12413904 282.45763448 -132.2935777 284.66971125 -131.46972656 286.88427734 C-131.1187793 287.80917969 -130.76783203 288.73408203 -130.40625 289.68701172 C-130.11234375 290.47188965 -129.8184375 291.25676758 -129.515625 292.06542969 C-128.78352945 294.00889611 -128.78352945 294.00889611 -126.65625 294.81982422 C-125.27658744 294.72804409 -123.90111262 294.5703901 -122.53125 294.38232422 C-103.20835594 292.31496751 -84.35377207 294.79464712 -65.96386719 300.92578125 C-65.17915039 301.18472168 -64.39443359 301.44366211 -63.5859375 301.71044922 C-62.89741699 301.94795898 -62.20889648 302.18546875 -61.49951172 302.43017578 C-59.43848488 303.02812335 -59.43848488 303.02812335 -56.65625 301.81982422 C-57.36644287 301.43761719 -58.07663574 301.05541016 -58.80834961 300.66162109 C-62.07700324 298.89337231 -65.33528899 297.10678101 -68.59375 295.31982422 C-69.71072266 294.71912109 -70.82769531 294.11841797 -71.97851562 293.49951172 C-78.18852551 290.07581126 -83.53449559 286.52186799 -88.70043945 281.65917969 C-91.41037501 279.11060217 -94.32636965 276.88582736 -97.28125 274.63232422 C-122.91452263 254.75144188 -143.68047025 231.73857133 -158.65625 202.81982422 C-158.9960791 202.17142578 -159.3359082 201.52302734 -159.68603516 200.85498047 C-175.10610532 171.0620185 -182.15051015 137.69954814 -181.78125 104.31982422 C-181.77118124 102.70654864 -181.7620624 101.09326685 -181.75390625 99.47998047 C-181.73224453 95.59310317 -181.69793915 91.70653615 -181.65625 87.81982422 C-183.52410156 87.80628906 -183.52410156 87.80628906 -185.4296875 87.79248047 C-186.13013184 87.78740479 -186.83057617 87.7823291 -187.55224609 87.77709961 C-190.63884218 87.83977707 -193.61453966 88.31287249 -196.65625 88.81982422 Z M-41.65625 312.81982422 C-41.26953125 313.29291016 -40.8828125 313.76599609 -40.484375 314.25341797 C-30.79177135 326.56110527 -29.66104802 338.59927516 -30.65625 353.81982422 C-32.42607833 366.85219643 -39.72651686 378.86472635 -45.49865723 390.48754883 C-49.43274523 398.41380481 -53.34807406 406.34927909 -57.25570679 414.28860474 C-58.8293653 417.47816865 -60.41301298 420.66263595 -61.99731445 423.84692383 C-62.98168585 425.8415979 -63.96567041 427.83646293 -64.94921875 429.83154297 C-65.40912201 430.74937561 -65.86902527 431.66720825 -66.34286499 432.612854 C-70.29407816 440.56073297 -70.29407816 440.56073297 -69.71875 449.19482422 C-69.368125 450.06107422 -69.0175 450.92732422 -68.65625 451.81982422 C-67.99625 451.81982422 -67.33625 451.81982422 -66.65625 451.81982422 C-54.95778138 424.10378632 -43.75264581 396.1937636 -32.59375 368.25732422 C-32.22565216 367.33579559 -31.85755432 366.41426697 -31.478302 365.46481323 C-26.86657481 353.91822832 -22.2593691 342.36984335 -17.65625 330.81982422 C-20.213291 327.55239669 -22.54128134 324.91497333 -25.9140625 322.48779297 C-26.70425781 321.91738281 -27.49445313 321.34697266 -28.30859375 320.75927734 C-29.12457031 320.18113281 -29.94054687 319.60298828 -30.78125 319.00732422 C-31.60496094 318.40984375 -32.42867188 317.81236328 -33.27734375 317.19677734 C-37.114525 314.04579949 -37.114525 314.04579949 -41.65625 312.81982422 Z M-99.65625 368.81982422 C-94.50657168 383.86740857 -88.94146197 398.73180515 -83.21875 413.56982422 C-82.38319032 415.74289627 -81.54790243 417.91607284 -80.71289062 420.08935547 C-78.69712846 425.33404894 -76.67806706 430.57746211 -74.65625 435.81982422 C-74.32625 435.81982422 -73.99625 435.81982422 -73.65625 435.81982422 C-74.45725921 401.28236509 -74.45725921 401.28236509 -91.65625 372.81982422 C-95.23037068 369.80268437 -95.23037068 369.80268437 -99.65625 368.81982422 Z M25.34375 376.81982422 C17.67540922 394.38039241 10.13524089 411.99363038 2.64407349 429.63046265 C-11.69639004 463.38333629 -26.28933536 497.01432443 -41.60058594 530.33935547 C-43.09099393 533.58431289 -44.574832 536.83220456 -46.05566406 540.08154297 C-48.18183616 544.74644912 -50.31636288 549.40745653 -52.45608521 554.06616211 C-53.28747463 555.87928429 -54.11637799 557.69354883 -54.94259644 559.5090332 C-63.07797825 577.37147937 -63.07797825 577.37147937 -68.65625 584.81982422 C-69.31625 585.80982422 -69.97625 586.79982422 -70.65625 587.81982422 C-39.99166292 585.66792337 -12.35294831 567.46514067 9.34375 546.81982422 C9.8814502 546.30935547 10.41915039 545.79888672 10.97314453 545.27294922 C34.44642682 522.84132249 50.55856923 496.14744428 51.58203125 462.87060547 C52.07685512 432.99478242 45.60726271 400.81589542 26.34375 376.81982422 C26.01375 376.81982422 25.68375 376.81982422 25.34375 376.81982422 Z M-184.65625 386.81982422 C-200.73478675 412.93724431 -206.67038175 442.45737036 -202.03125 472.88232422 C-201.85376221 474.05190674 -201.67627441 475.22148926 -201.4934082 476.42651367 C-197.40928097 501.78553027 -187.84497484 525.74263116 -171.65625 545.81982422 C-170.92921875 546.72603516 -170.2021875 547.63224609 -169.453125 548.56591797 C-151.2577896 569.88664262 -125.84292467 581.90812705 -98.65625 586.81982422 C-99.12933594 586.04123047 -99.60242188 585.26263672 -100.08984375 584.46044922 C-109.15734935 569.11815904 -115.75687811 552.78178965 -122.31079102 536.24267578 C-127.56584211 522.98194945 -132.95373745 509.776174 -138.34375 496.56982422 C-140.26732117 491.85514115 -142.1904821 487.14029094 -144.11328125 482.42529297 C-144.58594925 481.26624954 -145.05861725 480.10720612 -145.54560852 478.91304016 C-149.54715838 469.09635315 -153.52605785 459.27061861 -157.49694824 449.4414978 C-159.52464247 444.42437252 -161.55653591 439.40894702 -163.58877563 434.3936615 C-165.36268458 430.01558523 -167.13441022 425.63664354 -168.90283203 421.25634766 C-170.76951317 416.63405288 -172.64325583 412.01467607 -174.52178955 407.39718628 C-175.23104108 405.65054889 -175.93790738 403.90294086 -176.64227295 402.15432739 C-177.60809096 399.75766251 -178.58224882 397.36455979 -179.55859375 394.97216797 C-179.8442067 394.25777557 -180.12981964 393.54338318 -180.42408752 392.80734253 C-181.73456797 389.13441384 -181.73456797 389.13441384 -184.65625 386.81982422 Z " fill="#FCFCFC" transform="translate(468.65625,219.18017578125)"/>
<path d="M0 0 C7.17874587 1.36874618 14.09832646 2.34210477 21.41357422 2.515625 C23.72216797 2.75390625 23.72216797 2.75390625 25.72216797 4.75390625 C26.34632208 10.67808083 25.73875942 16.80260824 25.37232971 22.73275757 C24.917408 30.1218171 24.61717572 37.50064324 24.47607422 44.90234375 C24.45941208 45.74355774 24.44274994 46.58477173 24.42558289 47.45147705 C24.35934232 50.89368192 24.29643367 54.33585394 24.24536133 57.77832031 C24.20578283 60.34073196 24.15435057 62.90268539 24.10107422 65.46484375 C24.09266006 66.24080902 24.08424591 67.01677429 24.07557678 67.81625366 C23.98857805 71.59276218 23.83483478 74.54713268 21.72216797 77.75390625 C18.8549211 77.18045688 17.86071646 76.89245475 15.72216797 74.75390625 C15.1853177 72.14339805 14.74066965 69.57350159 14.34716797 66.94140625 C11.66696932 50.71274341 7.45359688 37.78677691 -6.27783203 27.75390625 C-28.15387628 14.07331221 -57.87062364 11.37353664 -82.69580078 16.78125 C-92.44567151 19.42870672 -100.29968636 23.60915851 -108.27783203 29.75390625 C-109.32970703 30.51703125 -110.38158203 31.28015625 -111.46533203 32.06640625 C-121.39612814 41.55583364 -128.75833943 56.00767663 -129.37133789 69.86816406 C-129.41215382 72.26844467 -129.4142182 74.66582281 -129.40283203 77.06640625 C-129.40669922 77.87013672 -129.41056641 78.67386719 -129.41455078 79.50195312 C-129.36257491 111.8049576 -111.1743233 137.63734974 -89.27783203 159.75390625 C-81.88308601 167.07507271 -74.03987465 173.72890901 -65.77783203 180.046875 C-63.50014436 181.78963217 -61.27819167 183.57555769 -59.09033203 185.4296875 C-50.49131485 192.63214897 -41.16641456 197.95767984 -31.36376953 203.3671875 C-14.93714773 212.44478008 0.77705817 222.40171988 15.72216797 233.75390625 C16.36508789 234.23988281 17.00800781 234.72585938 17.67041016 235.2265625 C24.84736686 240.67703971 31.67939826 246.36516374 38.28466797 252.5 C40.35060983 254.41033406 42.45167376 256.24720595 44.59716797 258.06640625 C54.22283733 266.46663105 62.85381135 275.69836659 70.72216797 285.75390625 C71.59026509 286.82169238 72.46013677 287.88803764 73.33154297 288.953125 C104.38033298 327.18319253 122.25184173 373.61202339 122.03466797 422.94140625 C122.03193375 424.2309169 122.03193375 424.2309169 122.02914429 425.54647827 C121.98415017 438.14908258 121.64632311 450.43822065 118.72216797 462.75390625 C118.55056152 463.49721191 118.37895508 464.24051758 118.20214844 465.00634766 C112.44491331 489.22377906 102.03627018 509.25553639 86.72216797 528.75390625 C85.97064453 529.72070312 85.21912109 530.6875 84.44482422 531.68359375 C66.82216499 553.80216418 45.54524626 573.95487903 20.72216797 587.75390625 C19.9592041 588.17913574 19.19624023 588.60436523 18.41015625 589.04248047 C-11.42861882 605.50942665 -42.95735679 615.20284965 -77.21533203 615.12890625 C-78.50700287 615.12908752 -78.50700287 615.12908752 -79.82476807 615.12927246 C-92.52854272 615.10391151 -104.64004086 614.3757565 -117.02099609 611.30517578 C-119.2518738 610.76024698 -121.4867955 610.29265343 -123.73876953 609.84375 C-152.2867682 603.98155947 -180.19906943 589.60434558 -202.27783203 570.75390625 C-203.09638672 570.0578125 -203.91494141 569.36171875 -204.75830078 568.64453125 C-225.40188754 550.59339492 -238.6519437 528.48717864 -247.27783203 502.75390625 C-247.60525391 501.83222656 -247.93267578 500.91054688 -248.27001953 499.9609375 C-252.71579758 486.64651974 -253.76491829 472.50969832 -253.61401367 458.57666016 C-253.59033174 456.25387781 -253.59350275 453.93224885 -253.60009766 451.609375 C-253.57509647 437.52148323 -252.69353973 423.2865997 -249.02783203 409.62890625 C-248.81022217 408.79818604 -248.5926123 407.96746582 -248.3684082 407.11157227 C-241.27737961 380.84785126 -228.12259592 358.26446057 -209.27783203 338.75390625 C-208.59333984 338.02945312 -207.90884766 337.305 -207.20361328 336.55859375 C-204.08105884 333.32089088 -201.1732536 331.04824689 -197.27783203 328.75390625 C-195.67612368 332.50063035 -194.09186773 336.25421358 -192.52319336 340.01489258 C-191.98754021 341.29226912 -191.44721975 342.56769916 -190.90209961 343.84106445 C-190.11785402 345.67526807 -189.35191412 347.51726435 -188.58642578 349.359375 C-188.12034912 350.46434326 -187.65427246 351.56931152 -187.17407227 352.70776367 C-186.21259108 355.9756473 -186.21371197 357.55640539 -187.27783203 360.75390625 C-188.57833474 362.78280211 -189.9643014 364.75792356 -191.40283203 366.69140625 C-211.73189466 395.06367144 -216.04878515 432.63288752 -210.66699219 466.48925781 C-204.24244136 503.87579076 -186.62747779 539.93101219 -155.24023438 562.41162109 C-140.73844386 572.33086024 -125.71971502 578.90160601 -108.77783203 583.37890625 C-107.59253906 583.70375 -107.59253906 583.70375 -106.38330078 584.03515625 C-86.62391779 589.27414159 -63.75717938 588.82086288 -44.27783203 582.75390625 C-43.5769043 582.54491699 -42.87597656 582.33592773 -42.15380859 582.12060547 C-6.92314622 571.43615879 26.02776955 544.91079912 46.72216797 514.75390625 C47.43630859 513.72265625 48.15044922 512.69140625 48.88623047 511.62890625 C54.2569372 503.4219836 57.71011147 495.02095018 60.72216797 485.75390625 C60.95564941 485.05668457 61.18913086 484.35946289 61.4296875 483.64111328 C67.63349755 464.80550098 68.70202592 445.40582965 66.72216797 425.75390625 C66.64901367 425.01785156 66.57585937 424.28179688 66.50048828 423.5234375 C62.36137188 385.88281977 41.44932553 353.4620803 15.72216797 326.75390625 C15.2189502 326.22877441 14.71573242 325.70364258 14.19726562 325.16259766 C7.43893833 318.14341501 0.42819544 311.73992507 -7.27783203 305.75390625 C-7.90318848 305.26277344 -8.52854492 304.77164062 -9.17285156 304.265625 C-24.12878234 292.53212455 -39.60250242 282.41225099 -56.01611328 272.83203125 C-56.8873584 272.32196533 -57.75860352 271.81189941 -58.65625 271.28637695 C-60.4180126 270.25652188 -62.18272029 269.23169 -63.95019531 268.21166992 C-68.88733269 265.32295871 -73.24211719 262.35364891 -77.52783203 258.56640625 C-81.40816639 255.18080585 -85.3253594 251.90009903 -89.41601562 248.77099609 C-114.14414245 229.8408051 -133.94540838 206.01089883 -147.27783203 177.75390625 C-147.60444824 177.06748047 -147.93106445 176.38105469 -148.26757812 175.67382812 C-157.1212515 156.73974211 -162.5819132 136.58249617 -165.02783203 115.84545898 C-165.26723831 113.84253553 -165.54892481 111.84480216 -165.83251953 109.84765625 C-169.13076092 83.16876754 -163.78659041 56.56138265 -147.34033203 35.00390625 C-131.04023777 14.27140908 -108.73980633 3.20303057 -83.27783203 -2.24609375 C-82.23852539 -2.48948486 -82.23852539 -2.48948486 -81.17822266 -2.73779297 C-54.4804193 -8.9268292 -26.50895434 -5.13668319 0 0 Z " fill="#010101" transform="translate(465.27783203125,232.24609375)"/>
<path d="M0 0 C0.92972626 -0.00307663 1.85945251 -0.00615326 2.81735229 -0.00932312 C4.32339523 0.00145515 4.32339523 0.00145515 5.85986328 0.01245117 C6.91182892 0.01290939 7.96379456 0.01336761 9.04763794 0.01383972 C11.28535076 0.01686374 13.52306144 0.02475448 15.76074219 0.03710938 C19.10506087 0.05501769 22.44909608 0.05762118 25.79345703 0.05737305 C37.05291925 0.07640804 48.27010323 0.31275653 59.51490784 0.88542175 C67.48352081 1.28229331 75.43426726 1.39624305 83.41186523 1.37329102 C85.63743758 1.3678718 87.86281204 1.37332638 90.08837891 1.37963867 C97.27564571 1.38273606 104.41453354 1.22606032 111.58642578 0.74682617 C120.64861444 0.1455595 129.69504253 0.05679449 138.77514648 0.05761719 C141.52814348 0.05539124 144.28076271 0.03703134 147.03369141 0.01831055 C148.80517444 0.01538228 150.57665933 0.0133937 152.34814453 0.01245117 C153.16067184 0.00526566 153.97319916 -0.00191986 154.81034851 -0.00932312 C159.37127651 0.00900711 163.00942056 0.50785601 167.30517578 2.24291992 C166.43017578 8.11791992 166.43017578 8.11791992 165.30517578 9.24291992 C163.63257719 9.42269046 161.95349721 9.542882 160.27392578 9.63745117 C159.23494141 9.70641602 158.19595703 9.77538086 157.12548828 9.84643555 C154.94378636 9.98375443 152.76146695 10.11164879 150.57861328 10.22924805 C142.61665819 10.78188989 136.11506946 12.26934437 129.74267578 17.24291992 C125.40611457 26.29313463 129.0156403 36.17986434 132.09423828 45.11791992 C139.66719311 66.33668713 147.91988733 87.31208508 156.11764526 108.29498291 C160.62898559 119.84715334 165.0307105 131.43673546 169.36767578 143.05541992 C175.13848165 158.51179743 180.9746995 173.94245493 186.85568237 189.35726929 C187.76588369 191.74313067 188.67550988 194.12921156 189.58450317 196.51553345 C194.20499789 208.64268057 198.85551656 220.75377379 203.71495056 232.78753662 C206.13913588 238.79080938 208.45205738 244.82981777 210.69580078 250.90307617 C212.61502161 256.08375771 214.55331614 261.25724868 216.49267578 266.43041992 C216.87174072 267.44177002 217.25080566 268.45312012 217.64135742 269.49511719 C222.03988321 281.21877195 226.48681589 292.92403826 230.93310547 304.62963867 C232.63302608 309.10629793 234.33054513 313.58386511 236.02783203 318.06152344 C237.60913602 322.23209181 239.19210149 326.40202892 240.77496338 330.57200623 C242.32961106 334.66877421 243.88211751 338.76634697 245.43310547 342.86450195 C255.22075632 368.72551664 265.06024483 394.55907715 275.30517578 420.24291992 C277.33878029 418.20931541 278.02217325 416.89486586 279.13012695 414.28857422 C279.48259995 413.46561859 279.83507294 412.64266296 280.19822693 411.79476929 C280.57769974 410.89465118 280.95717255 409.99453308 281.34814453 409.06713867 C281.74804092 408.12850983 282.14793732 407.18988098 282.55995178 406.22280884 C283.87635277 403.12764476 285.18495625 400.02926106 286.49267578 396.93041992 C287.41096647 394.76204275 288.32926078 392.59366712 289.24755859 390.42529297 C296.70922432 372.77472145 303.98035374 355.05407178 311.097229 337.26208496 C312.49154601 333.77710265 313.88732427 330.29270651 315.28320312 326.80834961 C322.30045201 309.29050271 329.3066647 291.76826089 336.30517578 274.24291992 C339.30517578 274.24291992 339.30517578 274.24291992 340.92749023 275.50878906 C341.7892688 276.38458618 341.7892688 276.38458618 342.66845703 277.27807617 C343.30847656 277.92325195 343.94849609 278.56842773 344.60791016 279.2331543 C345.27113281 279.91700195 345.93435547 280.60084961 346.61767578 281.30541992 C347.26929688 281.96219727 347.92091797 282.61897461 348.59228516 283.2956543 C350.52144489 285.25571148 352.41595709 287.2444117 354.30517578 289.24291992 C355.22242432 290.17467041 355.22242432 290.17467041 356.15820312 291.12524414 C356.71588379 291.71966309 357.27356445 292.31408203 357.84814453 292.92651367 C358.34725342 293.44656982 358.8463623 293.96662598 359.3605957 294.50244141 C360.30517578 296.24291992 360.30517578 296.24291992 360.1003418 298.58911133 C359.23253587 301.48535034 358.2003082 304.22772664 357.03955078 307.02026367 C356.56864014 308.15737793 356.09772949 309.29449219 355.61254883 310.46606445 C355.09369493 311.7042963 354.57456233 312.9424114 354.05517578 314.18041992 C353.51313961 315.48098617 352.97123125 316.7816057 352.42944336 318.08227539 C347.90614549 328.91398535 343.25008505 339.68732741 338.56230164 350.44876099 C334.87118721 358.92279789 331.22285119 367.41467022 327.587677 375.9128418 C317.96159394 398.41579841 308.18829629 420.85159409 298.30517578 443.24291992 C297.92586914 444.10353027 297.5465625 444.96414063 297.15576172 445.85083008 C296.1240452 448.19066586 295.09006399 450.5294855 294.05517578 452.86791992 C293.63437744 453.82275269 293.63437744 453.82275269 293.20507812 454.796875 C287.76558587 467.0567495 281.97031522 479.16586707 276.16088867 491.25390625 C275.45673222 492.72302741 274.75596308 494.19377626 274.05834961 495.66601562 C273.03013161 497.83490182 271.99112832 499.99831727 270.94970703 502.16088867 C270.64233109 502.81502243 270.33495514 503.46915619 270.01826477 504.14311218 C268.23968423 507.80249747 266.47664745 510.66053199 263.30517578 513.24291992 C260.36767578 513.80541992 260.36767578 513.80541992 257.30517578 513.24291992 C253.37380052 509.85981886 250.90563287 506.24067242 248.68017578 501.61791992 C248.34735596 500.93898682 248.01453613 500.26005371 247.67163086 499.56054688 C242.86460962 489.51467055 238.84952335 479.10964556 234.71972656 468.77319336 C232.48257626 463.18997047 230.20484798 457.62343443 227.93017578 452.05541992 C222.26245964 438.1495672 216.61253496 424.2364895 210.96240234 410.32348633 C208.51404523 404.29472634 206.06482479 398.26631708 203.61566162 392.23788452 C202.26213023 388.90624432 200.90865592 385.57458094 199.55517578 382.24291992 C199.01350939 380.90958648 198.47184272 379.57625314 197.93017578 378.24291992 C171.11767578 312.24291992 144.30517578 246.24291992 103.68017578 146.24291992 C103.41206085 145.5829451 103.14394592 144.92297028 102.8677063 144.24299622 C102.32593682 142.90940901 101.78416842 141.57582137 101.24240112 140.24223328 C99.88981649 136.91278052 98.53721301 133.58333542 97.18457031 130.25390625 C92.82164684 119.51480032 92.82164684 119.51480032 90.64794922 114.16235352 C90.373535 113.4866481 90.09912079 112.81094269 89.81639099 112.11476135 C89.26269032 110.75128297 88.70903015 109.38778813 88.15541077 108.02427673 C86.78694351 104.65416779 85.41755167 101.28444034 84.04614258 97.91552734 C81.47873411 91.60684844 78.92208898 85.29447465 76.39501953 78.96948242 C72.16740508 68.41810426 67.85812912 57.92262262 63.05517578 47.61791992 C62.49117065 46.38392456 62.49117065 46.38392456 61.91577148 45.125 C55.26521654 31.19675129 44.49766613 20.45238447 29.92236328 15.11401367 C28.62685547 14.68282227 28.62685547 14.68282227 27.30517578 14.24291992 C26.48275391 13.96577148 25.66033203 13.68862305 24.81298828 13.40307617 C16.70320438 11.04066086 8.44239752 10.52277837 0.05053711 9.97680664 C-0.91988525 9.90864746 -1.89030762 9.84048828 -2.89013672 9.77026367 C-3.76686035 9.71604248 -4.64358398 9.66182129 -5.546875 9.60595703 C-7.69482422 9.24291992 -7.69482422 9.24291992 -9.69482422 7.24291992 C-9.56982422 4.74291992 -9.56982422 4.74291992 -8.69482422 2.24291992 C-5.76519141 0.34489979 -3.4497836 -0.0060467 0 0 Z " fill="#010101" transform="translate(124.69482421875,284.757080078125)"/>
<path d="M0 0 C1.22620056 0.00014351 1.22620056 0.00014351 2.47717285 0.00028992 C5.13597267 0.00401324 7.79440183 0.02295237 10.453125 0.04296875 C12.2848295 0.04981716 14.11653529 0.05632635 15.94824219 0.0625 C26.57207162 0.11388619 37.17117761 0.34714474 47.78320312 0.86987305 C60.23799031 1.48081641 72.63025505 1.45715659 85.078125 0.73046875 C93.2512357 0.26040426 101.41847619 0.09022296 109.60357666 0.05322266 C111.60669084 0.04313956 113.60975027 0.02360427 115.61279297 0.00390625 C116.84787598 0.00261719 118.08295898 0.00132812 119.35546875 0 C121.01050415 -0.00616333 121.01050415 -0.00616333 122.69897461 -0.01245117 C125.78389735 0.23700012 127.95463736 0.82601666 130.703125 2.23046875 C131.703125 4.16796875 131.703125 4.16796875 131.703125 6.23046875 C130.68359375 7.8359375 130.68359375 7.8359375 128.703125 9.23046875 C126.09012813 9.48496222 123.62953388 9.59236426 121.015625 9.60546875 C106.39920464 10.09048528 93.14188986 14.37904507 82.765625 25.04296875 C75.06251791 34.19805039 69.53364827 45.16886128 64.453125 55.9375 C64.06939224 56.7500676 63.68565948 57.56263519 63.29029846 58.39982605 C59.18319482 67.19828189 55.48206568 76.15617027 51.82028198 85.14706421 C49.76083018 90.20275066 47.68367075 95.25117151 45.609375 100.30078125 C45.19276108 101.31627548 44.77614716 102.33176971 44.34690857 103.3780365 C40.49973385 112.74800341 36.58314205 122.0877901 32.640625 131.41796875 C31.35267128 134.46736631 30.06491593 137.51684757 28.77734375 140.56640625 C28.4546904 141.33043762 28.13203705 142.09446899 27.79960632 142.88165283 C25.13622069 149.1931307 22.48978686 155.51162958 19.84765625 161.83203125 C19.43889755 162.80970963 19.03013885 163.787388 18.60899353 164.79469299 C16.99880639 168.64665987 15.38891063 172.49874655 13.78097534 176.35165405 C12.67773768 178.99520335 11.57331566 181.63825537 10.46875 184.28125 C10.14650955 185.054617 9.8242691 185.82798401 9.49226379 186.62478638 C7.30287869 191.86032058 5.02733782 197.05342653 2.703125 202.23046875 C-2.02823458 198.83886358 -6.26116725 195.3642455 -10.29296875 191.1640625 C-13.65143865 187.92343365 -17.36072314 185.11259255 -21.0390625 182.24609375 C-23.296875 180.23046875 -23.296875 180.23046875 -24.296875 177.23046875 C-23.5488231 174.8108816 -22.7272803 172.54099111 -21.78125 170.19921875 C-21.4988446 169.47748978 -21.21643921 168.7557608 -20.92547607 168.01216125 C-20.30387964 166.42541883 -19.67821001 164.8402677 -19.04907227 163.25650024 C-17.30241529 158.85406305 -15.59145585 154.43771649 -13.875 150.0234375 C-13.50656982 149.07820724 -13.13813965 148.13297699 -12.75854492 147.15910339 C-8.34551287 135.82186849 -4.05298414 124.43992758 0.203125 113.04296875 C0.60107269 111.97751831 0.99902039 110.91206787 1.4090271 109.81433105 C8.57963717 90.5738145 15.35231437 71.20859978 21.89453125 51.74609375 C22.15194595 50.9817955 22.40936066 50.21749725 22.67457581 49.43003845 C25.04795506 42.31977666 27.06372508 35.73512823 27.078125 28.16796875 C27.11486328 27.14606445 27.11486328 27.14606445 27.15234375 26.10351562 C27.18179335 20.99400942 25.92339985 18.14246329 22.703125 14.23046875 C15.03436413 9.1179615 4.36739346 9.89277921 -4.56616211 9.65991211 C-5.40671143 9.6316333 -6.24726074 9.60335449 -7.11328125 9.57421875 C-7.87068604 9.55552734 -8.62809082 9.53683594 -9.40844727 9.51757812 C-11.296875 9.23046875 -11.296875 9.23046875 -13.296875 7.23046875 C-13.171875 4.73046875 -13.171875 4.73046875 -12.296875 2.23046875 C-8.62940309 -0.49565428 -4.36293674 -0.04006191 0 0 Z " fill="#020202" transform="translate(523.296875,284.76953125)"/>
<path d="M0 0 C13.8362434 11.79817154 21.59294011 26.99128042 23.5625 45.0625 C24.71547855 65.61655991 20.75866874 85.73647073 7.5625 102.0625 C6.97984375 102.81917969 6.3971875 103.57585937 5.796875 104.35546875 C-5.8082879 118.52059405 -23.02337203 126.09175482 -40.89453125 128.53515625 C-62.18931489 130.50815537 -82.00012185 126.0842724 -99.125 112.875 C-113.6042548 100.54081999 -121.48199822 82.39778157 -123.16650391 63.66455078 C-124.61417558 42.20124459 -118.09752054 23.214935 -104.1875 6.875 C-77.80808376 -21.34067441 -30.26653209 -23.20130246 0 0 Z M-71.4375 -4.9375 C-72.42105469 -4.54691406 -73.40460938 -4.15632813 -74.41796875 -3.75390625 C-87.64942161 2.16586924 -95.27684679 11.9170551 -100.67138672 25.02636719 C-107.94354048 44.35388866 -105.59701829 67.246527 -97.875 86 C-91.25928452 100.09435038 -80.78647854 111.56991228 -66.125 117.3125 C-51.82228039 122.07343313 -38.3644151 122.14170897 -24.4375 116.0625 C-9.93633515 108.50501461 -2.24040274 96.73741141 2.734375 81.46484375 C7.92072354 59.37393465 5.3017804 35.54471003 -6.4375 16.0625 C-14.25395261 3.50997019 -26.36641459 -3.54665986 -40.36694336 -7.47949219 C-50.15680602 -9.64501304 -62.20016675 -8.62402298 -71.4375 -4.9375 Z " fill="#000000" transform="translate(1333.4375,429.9375)"/>
<path d="M0 0 C7.71884727 -0.07669341 15.43759459 -0.12886742 23.15673828 -0.16479492 C25.77721834 -0.17978844 28.39767371 -0.20019002 31.01806641 -0.22631836 C34.80637748 -0.2631191 38.59435393 -0.27982142 42.3828125 -0.29296875 C43.53548615 -0.30845261 44.68815979 -0.32393646 45.87576294 -0.33988953 C59.42118186 -0.34262971 73.61088256 1.78618381 83.875 11.3125 C91.681473 19.72655227 92.53743263 29.07791606 92.12744141 40.05712891 C91.20588481 54.10645341 81.40472832 65.38711874 72 75 C73.44164442 79.43896164 75.88760301 82.50333077 78.9375 85.9375 C82.88777932 90.48689851 86.69394838 95.10536735 90.375 99.875 C94.37818991 105.0234081 98.50215039 110.0513226 102.75 115 C103.26868652 115.61085449 103.78737305 116.22170898 104.32177734 116.85107422 C114.34028623 128.40942379 123.62733249 133.53489513 139 135 C139 136.32 139 137.64 139 139 C134.54179367 139.08800873 130.08381461 139.14072922 125.625 139.1875 C124.37332031 139.21263672 123.12164063 139.23777344 121.83203125 139.26367188 C112.09736156 139.34012216 103.18302389 138.97931591 95.875 131.875 C95.12992188 131.17117188 94.38484375 130.46734375 93.6171875 129.7421875 C87.16623488 122.98312968 81.3034784 115.94753668 75.75 108.4375 C75.09435059 107.57850098 74.43870117 106.71950195 73.76318359 105.83447266 C70.65772807 101.74150194 67.75073999 97.70269849 65.2421875 93.21484375 C60.72859745 85.37450077 60.72859745 85.37450077 53.04394531 81.13378906 C45.72609911 79.90241045 38.4041627 79.75262194 31 80 C31.09460209 85.45884811 31.20091095 90.91730706 31.31738281 96.37573242 C31.35531609 98.22690843 31.39022613 100.07814925 31.421875 101.92944336 C31.60456716 112.48847943 32.07657894 122.59319745 34 133 C40.93 133.99 40.93 133.99 48 135 C48 136.32 48 137.64 48 139 C32.82 139 17.64 139 2 139 C2.495 137.02 2.495 137.02 3 135 C4.093125 134.938125 5.18625 134.87625 6.3125 134.8125 C10.04488487 134.37025836 10.04488487 134.37025836 11.875 131.875 C14.47251343 125.23691013 14.14846182 118.21270786 14.14526367 111.18701172 C14.14862228 110.12112823 14.1519809 109.05524475 14.15544128 107.95706177 C14.16490957 104.44792504 14.16689198 100.93883619 14.16796875 97.4296875 C14.17118296 94.98544292 14.17454716 92.54119853 14.17805481 90.09695435 C14.18403487 84.9811356 14.18589574 79.86533372 14.18530273 74.74951172 C14.18520089 68.19117299 14.19888079 61.63294198 14.21607494 55.07462883 C14.22718344 50.03035992 14.22922234 44.98611721 14.22869301 39.94183731 C14.22987379 37.52330273 14.23430107 35.10476749 14.24202538 32.68624496 C14.25180675 29.30881891 14.24895499 25.93162896 14.24291992 22.55419922 C14.24853943 21.55459167 14.25415894 20.55498413 14.25994873 19.52508545 C14.27327414 13.02244808 14.27327414 13.02244808 12 7 C8.57656027 4.36658482 4.1649526 4.41649526 0 4 C0 2.68 0 1.36 0 0 Z M31 9 C30.95371054 16.91885578 30.91814818 24.83765526 30.89637566 32.75661278 C30.88592726 36.4334935 30.87174898 40.11028183 30.84912109 43.78710938 C30.82743009 47.33379655 30.81543933 50.88039472 30.81024551 54.4271431 C30.806543 55.78197252 30.79931311 57.13679694 30.78853989 58.49158859 C30.77407552 60.38545757 30.77318351 62.27941564 30.77294922 64.17333984 C30.768508 65.25255707 30.76406677 66.33177429 30.75949097 67.44369507 C30.74156305 70.16673799 30.74156305 70.16673799 33 72 C41.96536371 75.00080356 54.57806424 76.13223958 63.328125 72.09375 C70.69357203 67.27523325 73.69289386 59.22842456 75.75 51 C76.7938917 38.47329956 75.69113805 25.95333 67.28125 15.95703125 C59.1833236 8.17439297 50.09175166 6.54072515 39.1640625 6.6640625 C36.05764349 6.99387983 33.85070367 7.78777076 31 9 Z " fill="#000000" transform="translate(1377,417)"/>
<path d="M0 0 C7.61570795 -0.06997515 15.23138192 -0.12304972 22.84733963 -0.15543652 C26.38499683 -0.17099244 29.92243166 -0.19204237 33.45996094 -0.22631836 C37.54103546 -0.26560662 41.62188195 -0.27979226 45.703125 -0.29296875 C46.95361633 -0.30845261 48.20410767 -0.32393646 49.49249268 -0.33988953 C61.71105699 -0.34219608 73.98798264 1.45545047 83.2265625 10.078125 C90.27336963 17.61180244 93.36955435 25.06564222 93.21484375 35.4140625 C92.03299656 49.63920502 85.59940388 59.84362441 76.42578125 70.21484375 C73.94678268 72.94095846 73.94678268 72.94095846 72 76 C72.7734375 76.96679688 73.546875 77.93359375 74.34375 78.9296875 C74.84414795 79.55520508 75.3445459 80.18072266 75.86010742 80.82519531 C76.96175344 82.20221184 78.0634799 83.57916401 79.1652832 84.95605469 C81.53258251 87.914572 83.89919598 90.87360325 86.26171875 93.8359375 C88.16977001 96.22777457 90.08387878 98.6146246 92 101 C92.69351562 101.86882812 93.38703125 102.73765625 94.1015625 103.6328125 C111.38425034 125.2103633 111.38425034 125.2103633 136.625 134.6875 C138.295625 134.8421875 138.295625 134.8421875 140 135 C140 135.99 140 136.98 140 138 C131.6744723 142.16276385 113.57015768 139.69123854 105 137 C93.20236424 131.9789824 86.32801793 121.53001898 78.875 111.625 C78.22692383 110.77695801 77.57884766 109.92891602 76.91113281 109.05517578 C73.52576427 104.57826318 70.40096992 100.09089515 67.54296875 95.2578125 C62.04231407 85.68062274 62.04231407 85.68062274 53 80.140625 C45.93260515 79.29926847 39.00522972 79.86858012 32 81 C31.8499418 99.38005603 31.8499418 99.38005603 32.375 117.75 C32.40585693 118.50385986 32.43671387 119.25771973 32.46850586 120.03442383 C32.70369048 124.31517513 33.27271544 128.0596321 35 132 C39.39421575 134.19710787 44.1633957 134.49966162 49 135 C48.67 136.32 48.34 137.64 48 139 C41.77035385 139.02529951 35.54072088 139.04284549 29.31103516 139.05493164 C27.19058741 139.05996872 25.07014315 139.06679859 22.94970703 139.07543945 C19.90656678 139.08753234 16.86347234 139.09323447 13.8203125 139.09765625 C12.86818878 139.10281754 11.91606506 139.10797882 10.93508911 139.11329651 C10.05432709 139.11337204 9.17356506 139.11344757 8.26611328 139.11352539 C7.48889923 139.115746 6.71168518 139.11796661 5.91091919 139.12025452 C4 139 4 139 2 138 C2.33 137.01 2.66 136.02 3 135 C5.26029355 134.16400101 7.52200341 133.66837483 9.87109375 133.13671875 C12.252267 132.15100106 12.252267 132.15100106 13.09451294 129.43434143 C14.11142943 125.57736923 14.45171086 121.87756543 14.61669922 117.91381836 C14.65429792 117.13131934 14.69189663 116.34882032 14.73063469 115.54260921 C15.14174225 106.15762019 15.14467755 96.77104563 15.1328125 87.37890625 C15.13348861 85.4580026 15.13446117 83.53709904 15.13571167 81.61619568 C15.13717173 77.62701589 15.13508759 73.63785876 15.13037109 69.64868164 C15.12464749 64.56315358 15.12798017 59.47767802 15.13394356 54.39215183 C15.13757201 50.43968821 15.13640058 46.48723688 15.13381577 42.53477287 C15.13315422 40.65988089 15.13394754 38.78498775 15.13629532 36.91009712 C16.14848719 21.1618907 16.14848719 21.1618907 12.5625 6.4375 C8.61901464 4.22530089 4.4399689 3.64396495 0 3 C0 2.01 0 1.02 0 0 Z M31 9 C30.55367501 11.61033377 30.55367501 11.61033377 30.64355469 14.703125 C30.64055359 15.89776367 30.63755249 17.09240234 30.63446045 18.32324219 C30.64680725 19.61907227 30.65915405 20.91490234 30.671875 22.25 C30.67493214 23.58756295 30.6768086 24.92512908 30.67755127 26.26269531 C30.68215693 29.06718105 30.69659199 31.87138006 30.71875 34.67578125 C30.74703267 38.27398792 30.75796121 41.87196861 30.7624321 45.47027588 C30.7665856 48.23260772 30.77640249 50.9948937 30.78830719 53.75720215 C30.79679065 55.73038208 30.80328204 57.70357025 30.80975342 59.67675781 C30.81936096 60.87139648 30.82896851 62.06603516 30.83886719 63.296875 C30.84569519 64.35229492 30.85252319 65.40771484 30.85955811 66.49511719 C30.8338661 68.99810128 30.8338661 68.99810128 32 71 C41.29842309 74.23219745 53.73354186 76.07874527 63 72 C69.795815 67.86282719 72.62773852 62.08716728 75.0859375 54.765625 C76.09128488 50.62393749 76.34603907 46.92683877 76.3125 42.6875 C76.30686035 41.93984375 76.3012207 41.1921875 76.29541016 40.421875 C76.05394051 29.38599486 72.57733969 20.57733969 64.6875 12.6875 C63.800625 12.130625 62.91375 11.57375 62 11 C61.45730469 10.63003906 60.91460938 10.26007812 60.35546875 9.87890625 C54.80460545 6.71480468 49.36091414 6.63669307 43.125 6.625 C42.2798584 6.62338867 41.4347168 6.62177734 40.56396484 6.62011719 C35.49047079 6.65897294 35.49047079 6.65897294 31 9 Z " fill="#000000" transform="translate(1302,617)"/>
<path d="M0 0 C7.36897044 -0.0252908 14.73792974 -0.04284179 22.10693359 -0.05493164 C24.61540139 -0.05997003 27.12386624 -0.06680084 29.63232422 -0.07543945 C33.2314527 -0.08752661 36.83054247 -0.09323315 40.4296875 -0.09765625 C42.12035843 -0.10539818 42.12035843 -0.10539818 43.84518433 -0.11329651 C44.88611237 -0.11337204 45.92704041 -0.11344757 46.99951172 -0.11352539 C47.91884491 -0.115746 48.8381781 -0.11796661 49.78536987 -0.12025452 C52 0 52 0 54 1 C53.67 1.99 53.34 2.98 53 4 C49.7 4.66 46.4 5.32 43 6 C42.02042824 9.91828705 41.87982149 10.51562139 43.13916016 13.99438477 C43.41480804 14.77031479 43.69045593 15.54624481 43.97445679 16.34568787 C44.28452667 17.18164993 44.59459656 18.017612 44.9140625 18.87890625 C45.23275299 19.76187881 45.55144348 20.64485138 45.87979126 21.55458069 C49.57776776 31.73244169 53.47221308 41.8368864 57.375 51.9375 C58.9575653 56.04616966 60.53767388 60.15578131 62.1171875 64.265625 C62.71784027 65.82768929 62.71784027 65.82768929 63.33062744 67.42131042 C66.20744616 74.91173264 69.0538787 82.41324582 71.8828125 89.921875 C72.27383148 90.95957535 72.66485046 91.9972757 73.06771851 93.06642151 C74.94605407 98.05403926 76.82094429 103.04293275 78.69287109 108.03295898 C79.36812104 109.82797842 80.04341175 111.62298253 80.71875 113.41796875 C81.02313995 114.23243469 81.32752991 115.04690063 81.6411438 115.88604736 C81.92392181 116.636745 82.20669983 117.38744263 82.49804688 118.16088867 C82.74131714 118.80966476 82.9845874 119.45844086 83.23522949 120.12687683 C84.05796207 122.14196427 85.00403029 124.06543652 86 126 C98.23521654 97.72081871 109.42794997 69.03364038 120.25 40.1875 C120.73055847 38.90755157 120.73055847 38.90755157 121.2208252 37.60174561 C122.13396698 35.16636636 123.0442393 32.72993921 123.953125 30.29296875 C124.35059937 29.23122185 124.35059937 29.23122185 124.75610352 28.14802551 C125.51598045 26.10276188 126.26231078 24.05336764 127 22 C127.28025024 21.2226651 127.56050049 20.4453302 127.84924316 19.6444397 C128.12296753 18.85983368 128.39669189 18.07522766 128.67871094 17.2668457 C128.92747986 16.55929642 129.17624878 15.85174713 129.43255615 15.12275696 C130.35053069 11.68869587 130.19280367 8.53473392 130 5 C126.37 4.67 122.74 4.34 119 4 C119.33 2.68 119.66 1.36 120 0 C134.19 0 148.38 0 163 0 C163.33 1.32 163.66 2.64 164 4 C162.89591797 4.12955078 162.89591797 4.12955078 161.76953125 4.26171875 C160.79371094 4.40222656 159.81789063 4.54273438 158.8125 4.6875 C157.84957031 4.81511719 156.88664063 4.94273437 155.89453125 5.07421875 C150.96344604 6.65136746 148.56087791 10.04054047 146.0012207 14.41918945 C145.35994781 15.70716771 144.73115529 17.00141579 144.11328125 18.30078125 C143.77170486 19.00237869 143.43012848 19.70397614 143.07820129 20.42683411 C139.82804296 27.18734252 136.9056751 34.07507474 134.07269287 41.01873779 C132.48455871 44.90973767 130.87478142 48.79181942 129.26953125 52.67578125 C128.9293396 53.50053955 128.58914795 54.32529785 128.23864746 55.17504883 C117.22622755 81.8536354 106.03063521 108.48084014 94.37402344 134.88525391 C93.46541462 136.94496097 92.56232072 139.00711059 91.66503906 141.07177734 C90.46295874 143.82795617 89.23659474 146.57166973 88 149.3125 C87.66210449 150.09641113 87.32420898 150.88032227 86.97607422 151.68798828 C86 153.80078125 86 153.80078125 84 157 C81.375 157.69995117 81.375 157.69995117 79 158 C74.58829174 149.61388699 70.88091363 141.06780411 67.42312622 132.25543213 C66.22199759 129.19487751 65.00854159 126.1392527 63.79588318 123.08325195 C63.15824561 121.47621602 62.52117581 119.86895471 61.88465881 118.26147461 C58.49117302 109.69679126 55.03049213 101.15972659 51.5625 92.625 C50.93795475 91.08709044 50.31344314 89.54916722 49.68896484 88.01123047 C48.74634596 85.68988435 47.80366042 83.36856551 46.86068726 81.04736328 C44.26426533 74.65493588 41.67673568 68.25893331 39.09083557 61.86224365 C36.5885215 55.67411348 34.07651554 49.48996384 31.55979919 43.30767822 C30.18208505 39.92053115 28.80978408 36.5314809 27.45458984 33.13525391 C26.10476166 29.75268955 24.74128404 26.37594219 23.375 23 C22.99754639 22.03924561 22.62009277 21.07849121 22.23120117 20.08862305 C19.90977175 14.40465413 17.58789261 9.99796373 12.0078125 6.890625 C7.66088213 5.41158645 3.57228848 4.47628005 -1 4 C-0.67 2.68 -0.34 1.36 0 0 Z " fill="#000000" transform="translate(678,401)"/>
<path d="M0 0 C0.85239258 0.00128906 1.70478516 0.00257813 2.58300781 0.00390625 C11.46436836 0.13494809 19.84994711 1.62619944 28.5625 3.3125 C28.2325 12.5525 27.9025 21.7925 27.5625 31.3125 C26.2425 31.3125 24.9225 31.3125 23.5625 31.3125 C23.40394531 30.50425781 23.24539063 29.69601562 23.08203125 28.86328125 C21.33658178 20.41789236 21.33658178 20.41789236 15.5625 14.3125 C7.48705969 9.44054015 -1.61009323 7.74608547 -10.90625 9.87890625 C-18.05580871 12.15484911 -22.66722324 14.55200374 -26.4375 21.3125 C-29.03677786 28.4605141 -29.25544541 34.42331421 -26.3359375 41.4140625 C-21.04946437 52.58461008 -10.66739167 59.85535074 -1.04541016 67.09375 C12.70134094 77.51339493 28.9021967 90.11792567 31.5625 108.3125 C32.8190067 122.71346285 30.98610925 134.82611914 21.5625 146.3125 C12.66638881 155.63311442 1.30377479 160.2540802 -11.55859375 160.7109375 C-13.66406239 160.7187791 -15.76964623 160.71084958 -17.875 160.6875 C-18.91720703 160.69910156 -19.95941406 160.71070313 -21.03320312 160.72265625 C-29.63584426 160.69065634 -38.33315568 159.61059521 -46.16015625 155.79296875 C-49.25287852 152.42439475 -49.08413022 150.04346108 -49.01367188 145.58007812 C-48.96791016 144.60490234 -48.92214844 143.62972656 -48.875 142.625 C-48.85630859 141.66916016 -48.83761719 140.71332031 -48.81835938 139.72851562 C-48.67075133 133.87605603 -48.16119535 128.12000562 -47.4375 122.3125 C-46.1175 122.3125 -44.7975 122.3125 -43.4375 122.3125 C-43.33953125 123.0859375 -43.2415625 123.859375 -43.140625 124.65625 C-41.92686104 133.11074377 -40.64026826 139.96652409 -33.875 145.625 C-26.07231203 150.92793794 -16.69794907 152.3277196 -7.4375 151.3125 C0.07676492 149.67947865 6.66531841 146.32786452 11.45703125 140.125 C15.9788824 132.7110815 16.35845702 124.65323292 14.5625 116.3125 C10.85174405 105.94899435 4.11317088 99.55646204 -4.3046875 92.8359375 C-9.60966656 88.59670599 -14.71779028 84.12140282 -19.84960938 79.67578125 C-21.23494885 78.4864 -22.63938071 77.31932912 -24.046875 76.15625 C-33.45848601 68.23751522 -41.51102964 57.72753123 -43.4375 45.3125 C-44.25350401 32.97880003 -43.58342049 22.94955443 -35.4375 13 C-25.83369828 3.06448802 -13.40157695 -0.08559889 0 0 Z " fill="#000000" transform="translate(971.4375,597.6875)"/>
<path d="M0 0 C2.35424805 0.21704102 2.35424805 0.21704102 5 1 C6.32348633 2.92553711 6.32348633 2.92553711 7.33203125 5.52734375 C7.72898193 6.52386963 8.12593262 7.52039551 8.53491211 8.54711914 C8.95651611 9.66594482 9.37812012 10.78477051 9.8125 11.9375 C10.27986572 13.12915771 10.74723145 14.32081543 11.22875977 15.54858398 C12.84885983 19.68786756 14.42486687 23.84344296 16 28 C16.58212188 29.53036281 17.16448361 31.0606344 17.74707031 32.59082031 C19.97848706 38.4545038 22.20804028 44.31889853 24.43173218 50.18551636 C29.94342337 64.72340458 35.56376043 79.21637727 41.30252075 93.66622925 C42.17610357 95.86839978 43.04666647 98.07177097 43.91403198 100.27639771 C45.13439835 103.37534709 46.36638651 106.46942847 47.6015625 109.5625 C47.95727829 110.47124374 48.31299408 111.37998749 48.67948914 112.31626892 C50.90718993 117.84721538 53.55552366 122.84594373 56.74447632 127.88647461 C58 130 58 130 59 133 C63.55023068 135.49528779 68.94502649 136.07734464 74 137 C74 138.32 74 139.64 74 141 C69.23112363 141.02475064 64.46228479 141.04288403 59.69335938 141.05493164 C58.07160796 141.05995505 56.44986105 141.06677494 54.828125 141.07543945 C52.49478031 141.08759229 50.1614956 141.09324828 47.828125 141.09765625 C47.10506165 141.10281754 46.38199829 141.10797882 45.63702393 141.11329651 C42.2798725 141.11366918 39.20893892 141.04907619 36 140 C36 139.01 36 138.02 36 137 C36.66 137 37.32 137 38 137 C37.3607322 131.45142563 35.48369222 126.66331099 33.4375 121.515625 C33.0861499 120.61882019 32.7347998 119.72201538 32.37280273 118.79803467 C31.25398406 115.94651297 30.12699968 113.09829681 29 110.25 C28.24167291 108.31921245 27.48385484 106.38822489 26.7265625 104.45703125 C25.34281112 100.93534864 23.95839298 97.41394442 22.56640625 93.89550781 C22.28740479 93.18968567 22.00840332 92.48386353 21.72094727 91.75665283 C21.00003367 89.93829095 21.00003367 89.93829095 20 88 C6.8 88 -6.4 88 -20 88 C-23.05524801 95.63812001 -25.95816594 103.24815169 -28.6875 111 C-29.29174805 112.66675781 -29.29174805 112.66675781 -29.90820312 114.3671875 C-33.28899887 123.9430979 -33.28899887 123.9430979 -34 134 C-31.23776722 136.76223278 -28.79293383 136.57856291 -25 137 C-25 138.32 -25 139.64 -25 141 C-38.53 141 -52.06 141 -66 141 C-66 139.68 -66 138.36 -66 137 C-65.12988281 136.96132813 -65.12988281 136.96132813 -64.2421875 136.921875 C-63.46101563 136.86515625 -62.67984375 136.8084375 -61.875 136.75 C-61.10929687 136.70359375 -60.34359375 136.6571875 -59.5546875 136.609375 C-55.00629598 135.52443757 -51.81263473 133.18533297 -49.17944336 129.34448242 C-44.346147 119.29076237 -40.4646445 108.95259491 -36.69335938 98.45901489 C-35.53620535 95.2393375 -34.36908875 92.02342701 -33.19921875 88.80834961 C-31.98929086 85.48295755 -30.77990097 82.15738324 -29.57351685 78.83070374 C-25.60457994 67.8872238 -21.56379127 56.97105647 -17.5 46.0625 C-17.17001007 45.17578613 -16.84002014 44.28907227 -16.50003052 43.37548828 C-11.10269642 28.87703257 -5.61654145 14.41510141 0 0 Z M-1 29 C-4.82691497 37.90797971 -7.805938 47.11323516 -10.85595703 56.30712891 C-11.75753157 59.02268521 -12.66558662 61.73601685 -13.57421875 64.44921875 C-14.1488229 66.17435085 -14.72305543 67.89960677 -15.296875 69.625 C-15.70459137 70.84207642 -15.70459137 70.84207642 -16.12054443 72.08374023 C-17.49973848 75.95819389 -17.49973848 75.95819389 -18 80 C-6.45 80 5.1 80 17 80 C16.139052 73.8501461 16.139052 73.8501461 14.41772461 68.16625977 C14.09746811 67.2858754 13.77721161 66.40549103 13.44725037 65.49842834 C13.10243118 64.57211105 12.757612 63.64579376 12.40234375 62.69140625 C12.04862198 61.72468491 11.69490021 60.75796356 11.33045959 59.76194763 C10.20589232 56.69306278 9.07185308 53.62777944 7.9375 50.5625 C7.17059473 48.47484042 6.40431187 46.38695208 5.63867188 44.29882812 C3.7663128 39.19654814 1.88617714 34.09718685 0 29 C-0.33 29 -0.66 29 -1 29 Z " fill="#000000" transform="translate(1662,415)"/>
<path d="M0 0 C0.19847988 11.68825948 -0.40920501 23.33022763 -1 35 C-2.32 35.33 -3.64 35.66 -5 36 C-5.09796875 35.2265625 -5.1959375 34.453125 -5.296875 33.65625 C-6.48011118 25.41439796 -7.756041 18.4625304 -14.25 12.8125 C-28.79089899 2.78995945 -49.67808827 2.17303796 -66.4375 5.25 C-75.079226 6.96753915 -81.79316095 9.97197276 -89 15 C-89.7425 15.33 -90.485 15.66 -91.25 16 C-93.53548562 17.30599178 -93.85376845 18.64897033 -95 21 C-95.94332473 22.38533975 -96.90274288 23.75980995 -97.875 25.125 C-107.60696067 39.67546803 -109.4653023 59.09274913 -106.34765625 76.12890625 C-103.53471263 87.70664416 -98.75279962 98.98618061 -90.28515625 107.546875 C-89 109 -89 109 -89 111 C-88.42378906 111.26167969 -87.84757812 111.52335938 -87.25390625 111.79296875 C-84.8599875 113.0749807 -83.01170197 114.56396712 -80.9375 116.3125 C-66.62744273 127.59633204 -48.55693579 130.2626834 -30.84765625 128.7265625 C-22.85012623 127.63552237 -15.72108982 125.32939615 -9.625 119.875 C-7.13705069 115.47324352 -5.57957406 110.79063306 -4 106 C-3.505 104.515 -3.505 104.515 -3 103 C-1.68 103 -0.36 103 1 103 C-0.1789793 127.47398418 -0.1789793 127.47398418 -5 134 C-7.72265625 135.23046875 -7.72265625 135.23046875 -11.0625 136.1875 C-12.14660156 136.51105469 -13.23070312 136.83460938 -14.34765625 137.16796875 C-39.07901223 142.8019568 -69.92392796 140.78454434 -92.25 128.25 C-97.70160805 124.75560861 -102.39332925 120.53115156 -107 116 C-107.72445313 115.2884375 -108.44890625 114.576875 -109.1953125 113.84375 C-121.93547586 100.47384472 -126.42011355 81.4699928 -126.21484375 63.40625 C-124.97757051 43.78984512 -117.3375685 25.71419595 -103 12 C-73.84583031 -12.10078028 -34.32695467 -5.37478413 0 0 Z " fill="#000000" transform="translate(1280,619)"/>
<path d="M0 0 C0.12379423 2.64030173 0.06694501 5.01437577 -0.14453125 7.6328125 C-0.19316818 8.38464813 -0.24180511 9.13648376 -0.29191589 9.91110229 C-0.45091765 12.31697807 -0.63144556 14.72069293 -0.8125 17.125 C-0.92394488 18.75380979 -1.03398887 20.38271609 -1.14257812 22.01171875 C-1.41213055 26.00911445 -1.70100001 30.0047034 -2 34 C-3.32 34 -4.64 34 -6 34 C-6.08636719 33.154375 -6.17273437 32.30875 -6.26171875 31.4375 C-7.28867435 23.14648231 -8.40343732 16.80680578 -15.0234375 11.32421875 C-30.23750086 1.13938896 -50.63329178 0.99163964 -68.2109375 3.5078125 C-80.43466713 6.03385639 -91.02459763 11.85873191 -98.234375 22.20703125 C-102.72009879 29.40252307 -105.56719323 36.61313968 -107 45 C-107.226875 46.258125 -107.45375 47.51625 -107.6875 48.8125 C-109.68002661 69.28889046 -105.60765581 87.6218303 -93 104 C-91.88625 105.546875 -91.88625 105.546875 -90.75 107.125 C-78.45322791 119.98071627 -61.71298683 126.95601436 -44.0625 127.42382812 C-32.87352894 127.47945511 -19.53785949 127.33930462 -11 119 C-7.37085 113.48977225 -5.1798464 107.19535292 -3 101 C-2.01 101 -1.02 101 0 101 C0.1968392 107.27698349 -0.48921063 113.03077188 -1.6875 119.1875 C-1.83638672 120.06341797 -1.98527344 120.93933594 -2.13867188 121.84179688 C-3.1906975 127.283451 -4.31233303 130.61188427 -9 134 C-32.27619743 142.51860834 -64.91919559 139.45867616 -87.05126953 129.37036133 C-105.66860259 120.43430448 -116.98558967 106.47721471 -124.03515625 87.1640625 C-129.68440752 67.56247436 -127.08687343 45.19095469 -117.41162109 27.42919922 C-107.8694242 11.10259096 -92.8888236 0.99130015 -74.9375 -4.3125 C-56.4112478 -8.77919242 -16.17033003 -10.78022002 0 0 Z " fill="#000000" transform="translate(1054,421)"/>
<path d="M0 0 C-0.99 7.92 -1.98 15.84 -3 24 C-4.485 24.495 -4.485 24.495 -6 25 C-6.14695312 24.24074219 -6.29390625 23.48148438 -6.4453125 22.69921875 C-7.68867154 16.40067866 -7.68867154 16.40067866 -11.875 11.875 C-23.58401393 8.5964761 -32.26551102 9.52824958 -46 9 C-46 26.49 -46 43.98 -46 62 C-41.38 61.87625 -36.76 61.7525 -32 61.625 C-30.55882812 61.59100098 -29.11765625 61.55700195 -27.6328125 61.52197266 C-16.4994285 61.70698023 -16.4994285 61.70698023 -7 57 C-5.68 57 -4.36 57 -3 57 C-3.99 65.91 -4.98 74.82 -6 84 C-6.99 84 -7.98 84 -9 84 C-9.16435547 83.07767578 -9.16435547 83.07767578 -9.33203125 82.13671875 C-9.49058594 81.32847656 -9.64914062 80.52023437 -9.8125 79.6875 C-9.96332031 78.88699219 -10.11414062 78.08648438 -10.26953125 77.26171875 C-11.10156121 74.68554041 -11.85246133 73.62692324 -14 72 C-16.92867318 71.09032438 -19.68229002 70.8324388 -22.73828125 70.71875 C-23.64126953 70.68136719 -24.54425781 70.64398437 -25.47460938 70.60546875 C-26.41111328 70.57066406 -27.34761719 70.53585937 -28.3125 70.5 C-30.16288697 70.43036871 -32.01315589 70.35751672 -33.86328125 70.28125 C-35.08978394 70.23581055 -35.08978394 70.23581055 -36.34106445 70.18945312 C-39.58955045 69.95799365 -42.78116692 69.48847356 -46 69 C-45.90773879 76.75982262 -45.80043376 84.51933217 -45.68261719 92.27880859 C-45.64431033 94.91905993 -45.60946051 97.55936376 -45.578125 100.19970703 C-45.53251211 103.99270401 -45.47451044 107.78533905 -45.4140625 111.578125 C-45.40251129 112.76053772 -45.39096008 113.94295044 -45.37905884 115.16119385 C-45.35918915 116.26203308 -45.33931946 117.36287231 -45.31884766 118.49707031 C-45.30552399 119.46525696 -45.29220032 120.4334436 -45.2784729 121.43096924 C-44.98444179 124.14353114 -44.52935955 125.74779294 -43 128 C-33.53549411 132.73225294 -20.88221834 132.14128112 -10.625 130.25 C-5.9886788 128.65956668 -5.9886788 128.65956668 -3 125 C-2.19412485 122.39544474 -1.49856874 119.80606874 -0.90625 117.14453125 C-0.6071875 116.43683594 -0.308125 115.72914063 0 115 C2.09375 114.19921875 2.09375 114.19921875 4 114 C4.26337748 121.76963564 4.51937514 131.10241636 0.89247131 138.15299988 C-1.93344497 140.9110167 -4.1178235 140.48775105 -8.01000977 140.4699707 C-8.71924591 140.4721611 -9.42848206 140.4743515 -10.15921021 140.47660828 C-12.5037498 140.47892002 -14.84703408 140.45266364 -17.19140625 140.42578125 C-18.81900127 140.42085829 -20.44660195 140.41755879 -22.07420349 140.41581726 C-25.48479294 140.40817505 -28.89496305 140.387607 -32.30541992 140.35668945 C-36.68269112 140.31708305 -41.05968953 140.29907606 -45.43711948 140.28938007 C-49.60525222 140.27941773 -53.77331797 140.25952055 -57.94140625 140.23828125 C-58.73985018 140.2348855 -59.53829411 140.23148975 -60.3609333 140.2279911 C-62.61383202 140.21644263 -64.866556 140.19792651 -67.11938477 140.17700195 C-68.40273209 140.16715775 -69.68607941 140.15731354 -71.00831604 140.14717102 C-74 140 -74 140 -76 139 C-76 138.01 -76 137.02 -76 136 C-75.37351562 135.90203125 -74.74703125 135.8040625 -74.1015625 135.703125 C-72.87566406 135.47882813 -72.87566406 135.47882813 -71.625 135.25 C-70.40683594 135.04117188 -70.40683594 135.04117188 -69.1640625 134.828125 C-66.91238092 134.18728223 -66.91238092 134.18728223 -65.7734375 132.359375 C-63.6191451 125.78769515 -63.84647397 118.93340674 -63.83886719 112.09521484 C-63.83390228 111.01957779 -63.82893738 109.94394073 -63.82382202 108.83570862 C-63.80927125 105.29411165 -63.80241247 101.75255938 -63.796875 98.2109375 C-63.7911205 95.74427286 -63.7853628 93.27760823 -63.77960205 90.8109436 C-63.76911421 85.64804883 -63.76325612 80.48516954 -63.75976562 75.32226562 C-63.75426624 68.7033477 -63.73019798 62.08463396 -63.70179367 55.46578026 C-63.68318934 50.37518712 -63.677963 45.28464358 -63.67642975 40.19401932 C-63.67340092 37.75314841 -63.6653647 35.31227842 -63.65224457 32.87144089 C-63.6352204 29.46279937 -63.63705495 26.05466268 -63.64355469 22.64599609 C-63.6343399 21.63703781 -63.62512512 20.62807953 -63.6156311 19.58854675 C-63.62037895 12.77925257 -63.62037895 12.77925257 -67 7 C-69.92391316 5.75694691 -69.92391316 5.75694691 -73.1875 5.1875 C-74.81751953 4.83751953 -74.81751953 4.83751953 -76.48046875 4.48046875 C-77.31191406 4.32191406 -78.14335938 4.16335938 -79 4 C-79 3.01 -79 2.02 -79 1 C-78.09211227 0.98969254 -77.18422455 0.97938507 -76.24882507 0.96876526 C-67.69961498 0.87085351 -59.15047503 0.76834803 -50.60138226 0.66066074 C-46.20604141 0.60545817 -41.81069388 0.55204239 -37.4152832 0.50268555 C-33.174769 0.45500272 -28.93433577 0.40265843 -24.69391823 0.34705925 C-23.0747968 0.32665347 -21.45565318 0.30793744 -19.83649254 0.29092598 C-17.571496 0.26684264 -15.30665229 0.2367935 -13.04174805 0.20532227 C-11.10648506 0.18200584 -11.10648506 0.18200584 -9.13212585 0.15821838 C-0.78960461 -0.26320154 -0.78960461 -0.26320154 0 0 Z " fill="#000000" transform="translate(1528,616)"/>
<path d="M0 0 C-0.14196516 2.85440587 -0.28845826 5.70846196 -0.4375 8.5625 C-0.47681641 9.36236328 -0.51613281 10.16222656 -0.55664062 10.98632812 C-0.80748156 15.71371506 -1.25321814 20.32476901 -2 25 C-3.32 25 -4.64 25 -6 25 C-6.07476563 24.31292969 -6.14953125 23.62585938 -6.2265625 22.91796875 C-6.62874808 20.1618146 -7.10200738 17.63865131 -8 15 C-17.66616902 7.91147605 -35.56640813 10.36283046 -45 10 C-45 27.49 -45 44.98 -45 63 C-40.38 62.87625 -35.76 62.7525 -31 62.625 C-29.55882812 62.59100098 -28.11765625 62.55700195 -26.6328125 62.52197266 C-15.4994285 62.70698023 -15.4994285 62.70698023 -6 58 C-5.01 58 -4.02 58 -3 58 C-3.14214728 61.00021487 -3.28861696 64.00011789 -3.4375 67 C-3.47681641 67.83917969 -3.51613281 68.67835938 -3.55664062 69.54296875 C-3.81851332 74.74013458 -4.2899352 79.84457153 -5 85 C-5.99 85 -6.98 85 -8 85 C-8.09796875 84.38511719 -8.1959375 83.77023437 -8.296875 83.13671875 C-9.12596175 78.09506893 -9.12596175 78.09506893 -11.9375 74 C-15.34981748 72.34554304 -18.15035425 71.84945379 -21.89453125 71.71875 C-22.85037109 71.68136719 -23.80621094 71.64398437 -24.79101562 71.60546875 C-25.78810547 71.57066406 -26.78519531 71.53585937 -27.8125 71.5 C-29.7774712 71.43060272 -31.74232492 71.35777986 -33.70703125 71.28125 C-34.5781958 71.25095703 -35.44936035 71.22066406 -36.34692383 71.18945312 C-39.2758496 70.9803019 -42.11183743 70.52199847 -45 70 C-44.9330117 77.74160476 -44.84320896 85.48270405 -44.73754883 93.22387695 C-44.70429675 95.85727936 -44.67626576 98.49075309 -44.65356445 101.12426758 C-44.62002471 104.90997711 -44.5677068 108.69503289 -44.51171875 112.48046875 C-44.50532883 113.65772018 -44.4989389 114.83497162 -44.49235535 116.04789734 C-44.46266411 117.69904289 -44.46266411 117.69904289 -44.43237305 119.38354492 C-44.41571846 120.83249397 -44.41571846 120.83249397 -44.39872742 122.31071472 C-43.92046339 125.53644825 -42.97160771 127.41298289 -41 130 C-35.33091933 132.02816248 -29.97773197 132.31120545 -24 132.25 C-23.24460937 132.25773438 -22.48921875 132.26546875 -21.7109375 132.2734375 C-15.4748421 132.25200762 -9.76986504 131.47726135 -4.1875 128.5 C-1.37532907 125.28609036 -0.74743867 122.27241802 0.12890625 118.14453125 C0.41636719 117.43683594 0.70382812 116.72914063 1 116 C3.08984375 115.19921875 3.08984375 115.19921875 5 115 C5.13987946 120.6587601 4.70769275 125.82619964 3.625 131.375 C3.49867187 132.08527344 3.37234375 132.79554688 3.2421875 133.52734375 C2.2514454 138.7485546 2.2514454 138.7485546 0 141 C-3.04983521 141.24050903 -3.04983521 141.24050903 -7.02001953 141.22705078 C-7.74207581 141.22734283 -8.46413208 141.22763489 -9.20806885 141.22793579 C-11.59977142 141.22654008 -13.99116421 141.21096783 -16.3828125 141.1953125 C-18.0390506 141.19158322 -19.69529089 141.18873585 -21.35153198 141.18673706 C-25.7147224 141.17909389 -30.07778007 141.1594396 -34.44091797 141.1373291 C-38.89158329 141.11688535 -43.34227003 141.1077385 -47.79296875 141.09765625 C-56.52870681 141.07619429 -65.2643369 141.04205018 -74 141 C-74.33 139.68 -74.66 138.36 -75 137 C-74.37351562 136.91363281 -73.74703125 136.82726562 -73.1015625 136.73828125 C-70.6408664 136.31522782 -68.35644099 135.82863859 -66 135 C-61.88210345 128.9947342 -62.851512 119.29548429 -62.85473633 112.27880859 C-62.85137772 111.22267868 -62.8480191 110.16654877 -62.84455872 109.07841492 C-62.83509122 105.60174369 -62.83310806 102.1251208 -62.83203125 98.6484375 C-62.82881699 96.22661316 -62.82545279 93.80478902 -62.82194519 91.38296509 C-62.81596534 86.31422475 -62.81410424 81.24550143 -62.81469727 76.17675781 C-62.81479911 69.67895283 -62.80111902 63.18125657 -62.78392506 56.6834774 C-62.77281629 51.68553158 -62.77077767 46.68761221 -62.77130699 41.6896553 C-62.77012625 39.29344939 -62.76569925 36.8972428 -62.75797462 34.50104904 C-62.74819266 31.15475529 -62.75104523 27.80869981 -62.75708008 24.46240234 C-62.74865082 22.97701714 -62.74865082 22.97701714 -62.74005127 21.46162415 C-62.69641084 14.97176234 -62.69641084 14.97176234 -65 9 C-68.00440021 6.99706653 -69.70993945 6.50728374 -73.1875 5.875 C-74.53908203 5.62363281 -74.53908203 5.62363281 -75.91796875 5.3671875 C-76.60503906 5.24601563 -77.29210938 5.12484375 -78 5 C-78 4.01 -78 3.02 -78 2 C-77.09211227 1.98969254 -76.18422455 1.97938507 -75.24882507 1.96876526 C-66.69961498 1.87085351 -58.15047503 1.76834803 -49.60138226 1.66066074 C-45.20604141 1.60545817 -40.81069388 1.55204239 -36.4152832 1.50268555 C-32.174769 1.45500272 -27.93433577 1.40265843 -23.69391823 1.34705925 C-22.0747968 1.32665347 -20.45565318 1.30793744 -18.83649254 1.29092598 C-16.571496 1.26684264 -14.30665229 1.2367935 -12.04174805 1.20532227 C-10.10648506 1.18200584 -10.10648506 1.18200584 -8.13212585 1.15821838 C-5.24058711 1.01215318 -2.84204504 0 0 0 Z " fill="#000000" transform="translate(1120,615)"/>
<path d="M0 0 C31.43066939 -0.62547 31.43066939 -0.62547 46 3 C47.36125 3.30744141 47.36125 3.30744141 48.75 3.62109375 C61.13629791 6.81691741 72.48512688 12.70188628 79.14453125 23.9296875 C83.90105007 34.39837275 80.60540469 46.67298602 77 57 C74.57272642 62.96225342 71.64552492 68.69284466 68.75 74.4375 C67.99614246 75.95836375 67.24353111 77.47984586 66.4921875 79.00195312 C64.67568665 82.67522674 62.84273486 86.33982146 61 90 C59.03014633 87.0452195 58.29373248 84.87437413 57.3125 81.5 C52.43938225 66.61091698 42.94628132 56.9913524 29.421875 49.671875 C25.91210556 47.95705614 22.60403711 46.76977361 18.76953125 46.05859375 C15.80216806 44.28341621 15.11909562 41.11342537 14 38 C13.75886475 37.36940674 13.51772949 36.73881348 13.26928711 36.08911133 C12.51947682 34.12693735 11.78942284 32.15825799 11.0625 30.1875 C8.44736239 23.15618808 5.71769869 16.18170786 2.8671875 9.2421875 C2.49851562 8.33726562 2.12984375 7.43234375 1.75 6.5 C1.41484375 5.6853125 1.0796875 4.870625 0.734375 4.03125 C0 2 0 2 0 0 Z " fill="#010101" transform="translate(345,526)"/>
<path d="M0 0 C1.49440496 0.25487036 2.97778993 0.57497629 4.45344543 0.9223175 C9.62124367 2.01261293 14.47801833 2.27809722 19.74487305 2.24291992 C21.12008118 2.24576744 21.12008118 2.24576744 22.52307129 2.24867249 C25.51937729 2.25234314 28.51543472 2.24173041 31.51171875 2.23046875 C33.61058016 2.22927487 35.7094421 2.22882423 37.80830383 2.2290802 C42.19165425 2.22752181 46.57492226 2.21928032 50.95825195 2.20581055 C56.56679584 2.18879025 62.17524965 2.18499754 67.78381634 2.18575573 C72.11187087 2.18548344 76.43990586 2.17999317 80.76795387 2.17275429 C82.83594426 2.16958109 84.90393686 2.16760338 86.97192955 2.16686058 C89.86242804 2.16468445 92.75283241 2.15591368 95.64331055 2.14526367 C96.49075333 2.14571686 97.33819611 2.14617004 98.21131897 2.14663696 C99.00583466 2.14237198 99.80035034 2.13810699 100.61894226 2.13371277 C101.64062516 2.131199 101.64062516 2.131199 102.68294811 2.12863445 C105.8065257 1.95522457 108.90305444 1.44242079 112 1 C112 9.25 112 17.5 112 26 C110.68 26 109.36 26 108 26 C107.7525 24.741875 107.505 23.48375 107.25 22.1875 C106.58022891 19.60409724 106.16202095 18.19442514 104.4375 16.125 C95.98071036 12.22186632 86.55688759 12.58189146 77.4375 12.375 C76.03318119 12.3367343 74.62888369 12.29767788 73.22460938 12.2578125 C69.81653396 12.16411971 66.40845577 12.07839926 63 12 C63.08409617 26.43036948 63.17942806 40.8606278 63.28752708 55.29083824 C63.3375292 61.99188531 63.38373186 68.69291669 63.421875 75.39404297 C63.45884019 81.86505618 63.50523066 88.33594038 63.55806351 94.8068428 C63.57654781 97.27145746 63.5916776 99.73609971 63.60334396 102.20075607 C63.62030856 105.66180283 63.64936832 109.12255796 63.68115234 112.58349609 C63.68331253 113.59482605 63.68547272 114.60615601 63.68769836 115.64813232 C63.47083155 126.64091543 63.47083155 126.64091543 68 136 C70.19291082 136.45662153 72.40585889 136.820412 74.625 137.125 C75.81351563 137.29257812 77.00203125 137.46015625 78.2265625 137.6328125 C79.14179687 137.75398437 80.05703125 137.87515625 81 138 C81 138.99 81 139.98 81 141 C78.68159016 142.15920492 77.34560869 142.12673288 74.765625 142.12939453 C73.89131836 142.13254669 73.01701172 142.13569885 72.11621094 142.13894653 C71.17036133 142.1369223 70.22451172 142.13489807 69.25 142.1328125 C67.7964209 142.13424759 67.7964209 142.13424759 66.31347656 142.13571167 C64.26236913 142.1363929 62.21125955 142.13454261 60.16015625 142.13037109 C57.01297177 142.12502205 53.86593002 142.13031804 50.71875 142.13671875 C48.72916635 142.13605796 46.73958279 142.13477677 44.75 142.1328125 C43.80415039 142.13483673 42.85830078 142.13686096 41.88378906 142.13894653 C41.00948242 142.13579437 40.13517578 142.13264221 39.234375 142.12939453 C38.07760254 142.12820114 38.07760254 142.12820114 36.89746094 142.12698364 C35 142 35 142 33 141 C33 140.01 33 139.02 33 138 C33.61488281 137.96003906 34.22976563 137.92007813 34.86328125 137.87890625 C35.67152344 137.77449219 36.47976563 137.67007813 37.3125 137.5625 C38.11300781 137.48128906 38.91351562 137.40007812 39.73828125 137.31640625 C42.99490039 135.42093017 43.29330579 133.17332137 44.38314247 129.67003059 C45.47599791 124.93967175 45.43902674 120.25732434 45.43237305 115.42163086 C45.4425647 114.29865601 45.45275635 113.17568115 45.46325684 112.01867676 C45.49327384 108.33401425 45.50263576 104.64961222 45.51171875 100.96484375 C45.52857375 98.39936975 45.54672509 95.83390396 45.56611633 93.26844788 C45.60869548 87.22324881 45.6382717 81.17812344 45.66143972 75.1328302 C45.68856992 68.24512815 45.73247626 61.35756416 45.77772844 54.46996105 C45.8703659 40.31338254 45.94214181 26.15676036 46 12 C41.16145533 12.06928612 36.32374141 12.15744617 31.48583984 12.26245117 C29.84303063 12.29552678 28.20011253 12.32361177 26.55712891 12.34643555 C24.183451 12.38030405 21.81075559 12.43263075 19.4375 12.48828125 C18.71320801 12.49467117 17.98891602 12.5010611 17.24267578 12.50764465 C11.93261547 12.65777301 7.84807954 13.78590872 3 16 C0.56729591 18.99409734 -0.78551674 21.35655022 -2 25 C-3.32 25 -4.64 25 -6 25 C-5.58788228 19.12732245 -4.5148375 13.67118978 -3 8 C-2.82178711 7.3289624 -2.64357422 6.6579248 -2.45996094 5.96655273 C-1.13391279 1.13391279 -1.13391279 1.13391279 0 0 Z " fill="#000000" transform="translate(1560,614)"/>
<path d="M0 0 C2.80126448 0.25944794 5.5770973 0.57529562 8.36767578 0.9230957 C18.31461672 2.06198079 28.11557543 2.2766142 38.1171875 2.23046875 C39.87492845 2.22927103 41.63267004 2.22882503 43.39041138 2.2290802 C47.03570693 2.22753401 50.68090166 2.21938708 54.32617188 2.20581055 C58.96196089 2.1887473 63.5976408 2.18499963 68.23345757 2.18575573 C71.84887706 2.18548202 75.46427346 2.17996996 79.07968521 2.17275429 C80.7882482 2.16960952 82.49681376 2.16761023 84.20537949 2.16686058 C93.85771809 2.15797498 103.38447358 1.93041647 113 1 C113.0271045 4.04172719 113.04688964 7.08320997 113.0625 10.125 C113.07087891 10.9809375 113.07925781 11.836875 113.08789062 12.71875 C113.10538306 17.26678411 112.93192358 21.52383164 112 26 C111.01 26 110.02 26 109 26 C108.84144531 25.38511719 108.68289063 24.77023437 108.51953125 24.13671875 C107.10736805 19.11807614 107.10736805 19.11807614 104 15.0625 C94.91158783 11.84368736 85.35842394 11.62201043 75.8125 11.375 C74.57435547 11.33632813 73.33621094 11.29765625 72.06054688 11.2578125 C69.04050374 11.16452931 66.0204514 11.07873594 63 11 C63.10823827 23.44951667 63.22100936 35.89898363 63.33933926 48.3484087 C63.3941653 54.1310999 63.44751383 59.91379637 63.49731445 65.6965332 C63.54556148 71.29222536 63.59791319 76.88786628 63.65294075 82.48349571 C63.673095 84.60296007 63.69184692 86.72243831 63.70907402 88.84192848 C63.79307889 99.069899 63.92361967 109.29747088 64.33227539 119.51831055 C64.35354964 120.2764269 64.37482389 121.03454325 64.39674282 121.81563282 C64.63450407 126.82601897 65.58874052 130.56907134 68 135 C71.14321673 136.27178196 71.14321673 136.27178196 74.6875 136.4375 C75.86699219 136.55996094 77.04648438 136.68242188 78.26171875 136.80859375 C79.16535156 136.87175781 80.06898437 136.93492187 81 137 C81 138.32 81 139.64 81 141 C65.49 141 49.98 141 34 141 C34 139.68 34 138.36 34 137 C34.62648438 136.91363281 35.25296875 136.82726562 35.8984375 136.73828125 C40.86791119 136.06305083 40.86791119 136.06305083 44.5 133 C45.83722489 124.97665068 46.15778804 116.97975323 46.20532227 108.85888672 C46.21522186 107.79428726 46.22512146 106.72968781 46.23532104 105.63282776 C46.26665986 102.14846953 46.29158315 98.66409771 46.31640625 95.1796875 C46.33699969 92.75016953 46.35799675 90.32065495 46.37937927 87.8911438 C46.43435327 81.52248901 46.48387054 75.15380323 46.53222656 68.78509521 C46.58262265 62.27597319 46.63821385 55.76689572 46.69335938 49.2578125 C46.80063881 36.50524672 46.90232649 23.75264279 47 11 C42.76787861 11.09459403 38.53624975 11.20090028 34.3046875 11.31738281 C32.86954487 11.35531893 31.43431854 11.39022862 29.99902344 11.421875 C15.76325329 11.10291592 15.76325329 11.10291592 3.125 16.25 C0.91465471 19.04017151 0.91465471 19.04017151 -1.1875 22.3125 C-1.785625 23.199375 -2.38375 24.08625 -3 25 C-3.66 25 -4.32 25 -5 25 C-5.23030062 19.39849449 -4.41411102 14.55015152 -3.0625 9.125 C-2.88009766 8.35414063 -2.69769531 7.58328125 -2.50976562 6.7890625 C-1.1429751 1.1429751 -1.1429751 1.1429751 0 0 Z " fill="#000000" transform="translate(1078,415)"/>
<path d="M0 0 C1.07902588 0.00008057 2.15805176 0.00016113 3.26977539 0.00024414 C22.450296 0.137796 22.450296 0.137796 25.5 3.1875 C26.04902091 11.50355206 25.17724997 19.90328159 24.5 28.1875 C23.51 28.1875 22.52 28.1875 21.5 28.1875 C21.26216797 27.08341797 21.26216797 27.08341797 21.01953125 25.95703125 C19.60691496 20.04901726 18.56946467 15.96012487 13.5 12.1875 C6.13488278 7.89118162 -2.47130984 6.80486617 -10.81640625 8.71875 C-16.14424093 10.57894275 -20.11705687 13.06369448 -23.25 17.875 C-25.75819862 24.52172635 -26.2183748 30.30380153 -23.62890625 37.00390625 C-18.70001307 46.53764774 -8.76350516 53.72088155 -0.41210938 60.12841797 C12.31860437 69.89906685 25.54596431 80.56246193 28.5 97.1875 C29.60166043 110.3168777 27.31960214 120.81560991 18.97265625 131.0625 C10.36225792 140.463029 -1.32791413 143.43009072 -13.671875 144.15234375 C-23.73505056 144.24476067 -33.48271265 142.81637417 -42.5 138.1875 C-44.09093476 136.59656524 -43.62982089 134.94358306 -43.6328125 132.7421875 C-43.63410156 131.82953125 -43.63539062 130.916875 -43.63671875 129.9765625 C-43.63285156 129.01492188 -43.62898438 128.05328125 -43.625 127.0625 C-43.62886719 126.1240625 -43.63273437 125.185625 -43.63671875 124.21875 C-43.62954965 119.10001342 -43.38024377 114.2314365 -42.5 109.1875 C-41.18 109.1875 -39.86 109.1875 -38.5 109.1875 C-38.41363281 110.04472656 -38.32726563 110.90195312 -38.23828125 111.78515625 C-37.15885167 121.56472825 -37.15885167 121.56472825 -31.5 129.1875 C-26.52105191 132.36272232 -21.45546633 134.79910002 -15.5 135.1875 C-14.241875 135.27 -12.98375 135.3525 -11.6875 135.4375 C-4.63845545 135.32967523 2.12451471 132.70779445 7.5 128.1875 C12.63260317 121.44139557 14.20547519 115.59893496 13.5 107.1875 C11.14113505 93.6947925 -0.4365929 85.25331324 -10.5 77.1875 C-25.25547413 65.34812747 -37.55254595 54.77641037 -39.74609375 34.96484375 C-40.03450076 26.43138919 -37.84585897 18.83590329 -32.5 12.1875 C-23.16456916 2.19981198 -13.15707652 -0.00897549 0 0 Z " fill="#000000" transform="translate(1826.5,414.8125)"/>
<path d="M0 0 C13.86 0 27.72 0 42 0 C42 1.32 42 2.64 42 4 C41.37351562 4.09796875 40.74703125 4.1959375 40.1015625 4.296875 C39.28429687 4.44640625 38.46703125 4.5959375 37.625 4.75 C36.81289063 4.88921875 36.00078125 5.0284375 35.1640625 5.171875 C32.89400358 5.79597959 32.89400358 5.79597959 31.90328979 7.70202637 C28.03918229 17.53233465 29.85284609 30.96819783 29.8671875 41.46875 C29.8665114 43.23832207 29.86553885 45.00789406 29.86428833 46.77746582 C29.86282266 50.47209565 29.86492719 54.16670115 29.86962891 57.86132812 C29.87529257 62.53304484 29.87194548 67.20470434 29.86622238 71.87641907 C29.79814726 94.7705817 29.79814726 94.7705817 30.3203125 117.65625 C30.34229706 118.44028198 30.36428162 119.22431396 30.38693237 120.03210449 C30.63274091 125.02886355 31.64097107 128.65079076 34 133 C37.14321673 134.27178196 37.14321673 134.27178196 40.6875 134.4375 C41.86699219 134.55996094 43.04648437 134.68242188 44.26171875 134.80859375 C45.16535156 134.87175781 46.06898438 134.93492187 47 135 C47 136.32 47 137.64 47 139 C31.49 139 15.98 139 0 139 C0 137.68 0 136.36 0 135 C0.62648438 134.91363281 1.25296875 134.82726562 1.8984375 134.73828125 C6.86791119 134.06305083 6.86791119 134.06305083 10.5 131 C11.80655221 123.16068675 12.14914915 115.36414255 12.14526367 107.42895508 C12.14862228 106.42436752 12.1519809 105.41977997 12.15544128 104.38475037 C12.1648654 101.0963311 12.16688956 97.80796314 12.16796875 94.51953125 C12.17118549 92.21888712 12.17454987 89.91824319 12.17805481 87.61759949 C12.18402339 82.81057256 12.18589687 78.00356357 12.18530273 73.1965332 C12.18520083 67.04315701 12.19889221 60.88989548 12.21607494 54.73654652 C12.22719751 49.99158704 12.22922192 45.24665537 12.22869301 40.50168419 C12.22987122 38.23273 12.23428408 35.96377505 12.24202538 33.69483376 C12.25183743 30.52409427 12.24894312 27.35360496 12.24291992 24.18286133 C12.24853943 23.2512619 12.25415894 22.31966248 12.25994873 21.35983276 C12.23509318 16.20297687 11.89358074 11.82727656 10 7 C6.55549263 4.70366176 4.06187717 4.45983515 0 4 C0 2.68 0 1.36 0 0 Z " fill="#000000" transform="translate(860,417)"/>
<path d="M0 0 C13.86 0 27.72 0 42 0 C42 1.32 42 2.64 42 4 C41.37351562 4.10957031 40.74703125 4.21914063 40.1015625 4.33203125 C39.28429688 4.49058594 38.46703125 4.64914062 37.625 4.8125 C36.40683594 5.03873047 36.40683594 5.03873047 35.1640625 5.26953125 C32.64179359 5.87544942 32.64179359 5.87544942 31 9 C29.72631204 15.00528662 29.85557303 21.30045111 29.87060547 27.41259766 C29.86885315 28.30665314 29.86710083 29.20070862 29.86529541 30.12185669 C29.86092537 33.05261222 29.86379925 35.98330644 29.8671875 38.9140625 C29.86651271 40.97276826 29.86554123 43.03147395 29.86428833 45.09017944 C29.86281761 49.3988318 29.86494447 53.70746336 29.86962891 58.01611328 C29.8753042 63.4994607 29.87205717 68.98275892 29.86605644 74.46610451 C29.86241545 78.71813313 29.86360592 82.97015041 29.86618423 87.22217941 C29.86684488 89.24169292 29.86605575 91.26120751 29.86370468 93.28071976 C29.85546704 102.35008386 29.85252442 111.42241135 30.32080078 120.48193359 C30.37761017 121.60860443 30.43441956 122.73527527 30.49295044 123.89608765 C31.06828888 127.4180315 32.1778364 129.94286789 34 133 C36.43387753 134.21693876 38.41838846 134.31959896 41.125 134.5625 C42.03507812 134.64628906 42.94515625 134.73007812 43.8828125 134.81640625 C44.58148437 134.87699219 45.28015625 134.93757812 46 135 C46.33 136.32 46.66 137.64 47 139 C31.49 139 15.98 139 0 139 C0 137.68 0 136.36 0 135 C0.93972656 134.88785156 0.93972656 134.88785156 1.8984375 134.7734375 C4.38859043 134.37281353 6.63623163 133.88316621 9 133 C15.22916648 123.13715307 12.16400827 103.86631238 12.16796875 92.48828125 C12.1711876 90.30738809 12.17455214 88.12649514 12.17805481 85.94560242 C12.18401474 81.39431253 12.18589775 76.84304155 12.18530273 72.29174805 C12.18520082 66.47492461 12.19889691 60.65822245 12.21607494 54.8414278 C12.2272139 50.34516344 12.22922142 45.84892834 12.22869301 41.3526516 C12.22986857 39.20815803 12.23426639 37.06366359 12.24202538 34.91918373 C12.25187179 31.91909956 12.24892979 28.91927826 12.24291992 25.91918945 C12.24853943 25.04467636 12.25415894 24.17016327 12.25994873 23.26914978 C12.23711654 14.9330531 12.23711654 14.9330531 10 7 C6.63739694 4.84682011 2.83121446 4.03148082 -1 3 C-0.67 2.01 -0.34 1.02 0 0 Z " fill="#000000" transform="translate(1527,417)"/>
<path d="M0 0 C5.45453512 3.75756864 9.46258557 8.32291928 10.8125 14.9375 C11.57205361 24.05214333 9.29847616 32.01251435 3.4765625 39.125 C-1.29617548 44.32347517 -6.50241517 48.46692517 -13.1875 50.9375 C-14.1775 50.9375 -15.1675 50.9375 -16.1875 50.9375 C-16.484375 48.6875 -16.484375 48.6875 -16.1875 45.9375 C-14.140625 43.875 -14.140625 43.875 -11.4375 41.9375 C-7.14621762 38.82569289 -3.59357921 35.74965841 -1.1875 30.9375 C-1.11799459 29.39726004 -1.10297643 27.85415012 -1.125 26.3125 C-1.13402344 25.49523437 -1.14304687 24.67796875 -1.15234375 23.8359375 C-1.16394531 23.20945312 -1.17554688 22.58296875 -1.1875 21.9375 C-4.1875 20.60416667 -4.1875 20.60416667 -7.1875 21.9375 C-13.07150994 22.60361433 -13.07150994 22.60361433 -15.94140625 20.890625 C-18.12314727 19.10317453 -19.91641024 17.47967952 -21.1875 14.9375 C-21.53194547 9.68470662 -21.76491751 6.11115376 -18.1875 1.9375 C-12.45468306 -2.0208736 -6.45903336 -2.15301112 0 0 Z " fill="#000000" transform="translate(1747.1875,406.0625)"/>
</svg>
